<?xml version="1.0" encoding="UTF-8"?>
<!DOCTYPE svg PUBLIC "-//W3C//DTD SVG 1.1//EN" "http://www.w3.org/Graphics/SVG/1.1/DTD/svg11.dtd">
<!-- Creator: CorelDRAW 2018 (64-Bit) -->
<svg xmlns="http://www.w3.org/2000/svg" xml:space="preserve" width="768px" height="768px" version="1.1" style="shape-rendering:geometricPrecision; text-rendering:geometricPrecision; image-rendering:optimizeQuality; fill-rule:evenodd; clip-rule:evenodd"
viewBox="0 0 768 768"
 xmlns:xlink="http://www.w3.org/1999/xlink">
 <defs>
  <style type="text/css">
   <![CDATA[
    .fil0 {fill:black}
    .fil2 {fill:black;fill-rule:nonzero}
    .fil1 {fill:#A0D223;fill-rule:nonzero}
   ]]>
  </style>
 </defs>
 <g id="Слой_x0020_1">
  <metadata id="CorelCorpID_0Corel-Layer"/>
  <path class="fil0" d="M342.97 243.66l10.82 -1.89 0.13 66.49 -3.02 0.04 -2.39 -51.75 -3.96 0.73 -0.39 62.75 -12.78 5.64 0.79 -77.76c0,0 -9.33,-11.45 -6.36,-18.98 1.26,-4.42 8.33,-7.3 8.33,-7.3l-0.84 -11.9c0,0 -0.81,-7.16 8.97,-10.06 0,0 1.04,-10.24 1.48,-13.13 0.47,-2.92 2.97,-7.21 8.69,-8.66 0,0 1.48,-34.62 15.63,-52.42 14.14,-17.75 34.94,-31.9 34.94,-31.9l-2.42 -34.25 17.51 -9.13 1.33 -34.77 4.4 0.31 2.31 41.49 -12.66 11.12 0.49 35.11c0,0 -15.51,4.34 -28.96,18.14 -14.43,14.84 -26.59,40.03 -14.81,64.38 0,0 -11.32,1.17 -15.69,5.01 -4.34,3.83 -3.12,6.19 0.27,5.46 3.37,-0.76 52.42,-10.43 98.61,-3.99l-0.95 3.44c0,0 -56.38,-4.23 -105.24,15.31 0,0 -2.7,1.04 -2.65,3.79 0.06,2.73 0.1,5.43 3.8,4.73 3.75,-0.76 50.61,-12.11 95.8,-5.64l0.45 3.94c0,0 -50.88,-3.8 -90.94,8.93 -19.25,4.82 -17.76,8.49 -17.76,8.49 0,0 1.35,2.51 7.07,8.23z"/>
  <polygon class="fil0" points="359.81,240.8 378.37,235.8 375.4,304.32 371.8,304.2 368.99,252.73 360.35,253.85 "/>
  <polygon class="fil0" points="382.24,234.66 385.19,250.64 393.61,248.97 396.13,300.26 399.82,300.03 402.35,234.06 "/>
  <polygon class="fil0" points="406.9,233.94 431.61,233.22 429.29,299.35 425.71,299.44 422.88,248.66 415.68,249.16 "/>
  <polygon class="fil0" points="462.33,347.31 461.69,350.92 335.81,338.3 299.01,352.82 299.01,365.37 337.76,354.08 471.52,372 471.58,375.73 340.95,363.38 255.05,395.89 252.43,379.39 287.25,369.02 291.3,346.31 335.38,331.15 "/>
  <polygon class="fil0" points="353.15,369.3 370.19,370.93 370.39,395.19 353.52,393.43 "/>
  <polygon class="fil0" points="382.85,372.94 397.13,374.96 397.66,397.95 383.57,396.34 "/>
  <polygon class="fil0" points="408.48,376.1 421.42,377.83 421.64,400.29 409.03,399.08 "/>
  <path class="fil1" d="M716.7 464.4c-1.23,1.74 -3.19,4.23 -5.47,7.15 -2.29,2.92 -4.98,6.28 -8.06,9.81 -1.52,1.74 -3.09,3.54 -4.69,5.37 -1.62,1.8 -3.36,3.62 -5.05,5.4 -1.71,1.79 -3.4,3.55 -5.11,5.26 -1.76,1.68 -3.48,3.34 -5.15,4.94 -3.3,3.17 -6.58,6 -9.37,8.37 -1.39,1.17 -2.66,2.25 -3.8,3.2 -1.16,0.92 -2.19,1.73 -3.03,2.39 -1.68,1.3 -2.64,2.05 -2.64,2.05 0,0 -0.96,0.54 -2.64,1.51 -1.66,0.96 -4.13,2.28 -7.09,3.78 -5.87,3.04 -13.87,6.72 -21.98,9.74 -8.11,3.07 -16.34,5.47 -22.52,6.95 -3.1,0.74 -5.67,1.3 -7.46,1.67 -1.79,0.38 -2.85,0.54 -2.85,0.54 0,0 0.26,-0.08 0.75,-0.24 0.5,-0.15 1.2,-0.39 2.09,-0.71 1.79,-0.64 4.35,-1.57 7.46,-2.77 3.08,-1.21 6.59,-2.76 10.44,-4.49 3.74,-1.8 7.79,-3.81 11.75,-6 7.89,-4.37 15.64,-9.4 21.22,-13.48 2.79,-2.03 5.14,-3.78 6.76,-5.03 1.58,-1.27 2.48,-2 2.48,-2 0,0 0.95,-0.58 2.62,-1.62 1.65,-1.04 4.09,-2.54 6.86,-4.44 2.77,-1.9 6,-4.17 9.46,-6.71 3.38,-2.54 6.93,-5.35 10.49,-8.26 3.5,-2.91 6.88,-5.92 10.09,-8.81 3.21,-2.9 5.99,-5.67 8.46,-8.09 2.45,-2.42 4.49,-4.49 5.83,-5.93 1.36,-1.46 2.14,-2.29 2.14,-2.29 0,0 -0.72,1 -1.99,2.74zm-127.11 44.18c-2.08,-7.42 -4.5,-14.46 -6.48,-19.59 -0.96,-2.55 -1.77,-4.62 -2.41,-6.1 -0.61,-1.45 -0.96,-2.28 -0.96,-2.28 0,0 -0.24,-0.89 -0.66,-2.45 -0.21,-0.76 -0.46,-1.7 -0.75,-2.77 -0.33,-1.06 -0.7,-2.27 -1.1,-3.58 -0.79,-2.6 -1.7,-5.56 -2.84,-8.74 -0.54,-1.55 -1.1,-3.15 -1.67,-4.78 -0.62,-1.61 -1.25,-3.26 -1.88,-4.9 -0.63,-1.62 -1.23,-3.2 -1.87,-4.77 -0.66,-1.56 -1.31,-3.09 -1.94,-4.58 -1.2,-2.9 -2.45,-5.62 -3.51,-7.92 -2.04,-4.53 -3.55,-7.53 -3.55,-7.53 0,0 0.47,0.68 1.29,1.88 0.85,1.22 1.97,2.91 3.33,4.99 1.34,2.08 3.02,4.61 4.66,7.29 1.63,2.69 3.44,5.67 5.18,8.68 1.68,2.98 3.4,6.08 4.97,9.05 1.52,2.92 2.93,5.74 4.14,8.21 1.21,2.47 2.11,4.52 2.79,6 0.66,1.48 1.04,2.33 1.04,2.33 0,0 0.26,0.9 0.7,2.47 0.39,1.58 0.96,3.85 1.64,6.56 1.35,5.51 2.85,13.02 4.02,20.91 0.57,3.93 1.01,7.91 1.41,11.75 0.3,3.78 0.6,7.45 0.75,10.58 0.1,3.17 0.19,5.81 0.25,7.66 0.03,0.95 0.04,1.68 0.03,2.18 0,0.5 0,0.77 0,0.77 0,0 -0.12,-1.02 -0.41,-2.82 -0.3,-1.77 -0.73,-4.29 -1.25,-7.33 -1.09,-5.99 -2.81,-13.77 -4.92,-21.17zm-13.18 90.95c9.15,-1.07 18.47,-2.72 25.38,-4.43 3.48,-0.82 6.4,-1.56 8.4,-2.16 2.03,-0.58 3.18,-0.92 3.18,-0.92 0,0 1.16,-0.18 3.19,-0.51 2.05,-0.31 4.91,-0.88 8.39,-1.61 1.74,-0.39 3.63,-0.81 5.63,-1.25 1.99,-0.47 4.07,-1.03 6.24,-1.62 2.17,-0.59 4.42,-1.22 6.71,-1.89 2.25,-0.71 4.55,-1.46 6.86,-2.24 4.65,-1.53 9.18,-3.3 13.47,-5.05 4.32,-1.72 8.21,-3.54 11.61,-5.13 3.4,-1.59 6.2,-3 8.12,-4.02 1.93,-1.03 3.04,-1.62 3.04,-1.62 0,0 -1.11,0.78 -3.05,2.14 -1.91,1.37 -4.78,3.23 -8.19,5.39 -1.71,1.08 -3.54,2.24 -5.51,3.42 -2,1.14 -4.1,2.34 -6.28,3.59 -4.3,2.47 -9.1,4.82 -13.78,7.11 -4.76,2.22 -9.51,4.3 -14.01,6.07 -4.53,1.73 -8.67,3.31 -12.33,4.45 -7.22,2.39 -12.06,3.6 -12.06,3.6 0,0 -1.15,0.14 -3.15,0.39 -1.99,0.24 -4.84,0.55 -8.28,0.78 -6.84,0.54 -15.89,0.86 -24.83,0.51 -2.23,-0.08 -4.45,-0.18 -6.62,-0.31 -2.18,-0.17 -4.33,-0.35 -6.4,-0.52 -4.11,-0.35 -7.95,-0.84 -11.21,-1.3 -3.26,-0.46 -5.94,-0.88 -7.84,-1.23 -1.88,-0.34 -2.96,-0.54 -2.96,-0.54 0,0 4.48,0.29 11.23,0.27 6.78,0.05 15.84,-0.37 25.05,-1.37zm-41.9 -119.79c-0.36,-1.33 -0.56,-2.09 -0.56,-2.09 0,0 0.32,0.75 0.89,2.05 0.59,1.33 1.36,3.21 2.24,5.51 0.88,2.31 1.96,5.12 2.91,8.12 1,3.02 2.06,6.37 2.93,9.75 0.45,1.72 0.9,3.45 1.34,5.15 0.38,1.73 0.75,3.43 1.11,5.07 0.35,1.67 0.7,3.32 0.99,4.88 0.26,1.57 0.5,3.05 0.73,4.42 0.44,2.77 0.8,5.16 0.98,6.79 0.19,1.66 0.3,2.61 0.3,2.61 0,0 -0.03,0.95 -0.09,2.61 -0.04,1.68 -0.2,4.04 -0.42,6.94 -0.39,5.83 -1.35,13.67 -2.71,21.84 -1.42,8.07 -3.25,16.44 -4.91,22.71 -1.61,6.33 -2.91,10.57 -2.91,10.57 0,0 0.16,-1.06 0.43,-2.93 0.28,-1.84 0.62,-4.53 0.98,-7.69 0.38,-3.16 0.78,-6.81 1.07,-10.71 0.14,-1.92 0.29,-3.91 0.44,-5.93 0.09,-2.01 0.19,-4.04 0.28,-6.08 0.34,-8.07 0.2,-15.91 -0.11,-21.63 -0.12,-2.84 -0.31,-5.2 -0.46,-6.85 -0.15,-1.63 -0.23,-2.56 -0.23,-2.56 0,0 0.05,-0.94 0.12,-2.59 0.08,-1.64 0.08,-4.02 0.11,-6.77 0.03,-5.51 -0.32,-12.73 -1.06,-19.53 -0.45,-3.46 -0.82,-6.73 -1.41,-9.84 -0.27,-1.51 -0.54,-2.97 -0.79,-4.36 -0.27,-1.37 -0.58,-2.68 -0.84,-3.85 -0.53,-2.36 -0.96,-4.24 -1.35,-5.61zm-31.16 169.94c9.12,1.71 18.38,2.93 25.43,3.69 3.53,0.31 6.48,0.57 8.54,0.75 2.08,0.18 3.27,0.23 3.27,0.23 0,0 4.58,0.94 11.58,2.1 3.51,0.53 7.62,1.13 12.08,1.65 4.44,0.46 9.24,0.97 14.07,1.23 9.66,0.6 19.54,0.62 27.01,0.25 7.49,-0.3 12.54,-0.85 12.54,-0.85 0,0 -1.32,0.29 -3.62,0.81 -2.31,0.49 -5.61,1.11 -9.53,1.82 -3.91,0.73 -8.49,1.32 -13.34,1.97 -4.86,0.54 -9.99,1.08 -15.1,1.37 -10.2,0.68 -20.22,0.61 -27.63,0.34 -3.7,-0.09 -6.78,-0.36 -8.92,-0.49 -2.14,-0.16 -3.37,-0.25 -3.37,-0.25 0,0 -4.52,-1 -11.16,-2.7 -6.66,-1.73 -15.41,-4.3 -23.99,-7.21 -8.59,-2.91 -17.02,-6.14 -23.29,-8.7 -6.28,-2.57 -10.4,-4.37 -10.4,-4.37 0,0 4.39,1.24 11.07,2.94 6.67,1.68 15.65,3.77 24.76,5.42zm-220.95 -3.99c-6.26,2.56 -14.7,5.79 -23.29,8.7 -8.58,2.91 -17.33,5.48 -23.98,7.21 -6.65,1.7 -11.17,2.7 -11.17,2.7 0,0 -1.22,0.09 -3.36,0.25 -2.15,0.13 -5.23,0.4 -8.93,0.49 -7.41,0.27 -17.42,0.34 -27.63,-0.34 -5.1,-0.29 -10.24,-0.83 -15.1,-1.37 -4.84,-0.65 -9.42,-1.24 -13.34,-1.97 -3.92,-0.71 -7.22,-1.33 -9.53,-1.82 -2.3,-0.52 -3.62,-0.81 -3.62,-0.81 0,0 5.06,0.55 12.54,0.85 7.48,0.37 17.35,0.35 27.01,-0.25 4.83,-0.26 9.63,-0.77 14.08,-1.23 4.45,-0.52 8.57,-1.12 12.07,-1.65 7.01,-1.16 11.59,-2.1 11.59,-2.1 0,0 1.18,-0.05 3.26,-0.23 2.06,-0.18 5.01,-0.44 8.54,-0.75 7.05,-0.76 16.31,-1.98 25.43,-3.69 9.11,-1.65 18.09,-3.74 24.76,-5.42 6.68,-1.7 11.08,-2.94 11.08,-2.94 0,0 -4.12,1.8 -10.41,4.37zm-65.17 -44.52c-1.9,0.35 -4.58,0.77 -7.83,1.23 -3.27,0.46 -7.1,0.95 -11.22,1.3 -2.07,0.17 -4.22,0.35 -6.4,0.52 -2.17,0.13 -4.38,0.23 -6.62,0.31 -8.94,0.35 -17.99,0.03 -24.83,-0.51 -3.43,-0.23 -6.28,-0.54 -8.28,-0.78 -2,-0.25 -3.15,-0.39 -3.15,-0.39 0,0 -4.84,-1.21 -12.06,-3.6 -3.66,-1.14 -7.8,-2.72 -12.33,-4.45 -4.5,-1.77 -9.25,-3.85 -14.01,-6.07 -4.68,-2.29 -9.48,-4.64 -13.78,-7.11 -2.17,-1.25 -4.28,-2.45 -6.28,-3.59 -1.97,-1.18 -3.8,-2.34 -5.51,-3.42 -3.41,-2.16 -6.27,-4.02 -8.19,-5.39 -1.94,-1.36 -3.05,-2.14 -3.05,-2.14 0,0 1.11,0.59 3.05,1.62 1.91,1.02 4.71,2.43 8.12,4.02 3.39,1.59 7.28,3.41 11.6,5.13 4.29,1.75 8.82,3.52 13.47,5.05 2.31,0.78 4.61,1.53 6.86,2.24 2.29,0.67 4.54,1.3 6.71,1.89 2.18,0.59 4.25,1.15 6.24,1.62 2,0.44 3.89,0.86 5.64,1.25 3.48,0.73 6.33,1.3 8.38,1.61 2.03,0.33 3.19,0.51 3.19,0.51 0,0 1.16,0.34 3.18,0.92 2,0.6 4.93,1.34 8.4,2.16 6.91,1.71 16.23,3.36 25.38,4.43 9.22,1 18.27,1.42 25.06,1.37 6.75,0.02 11.22,-0.27 11.22,-0.27 0,0 -1.07,0.2 -2.96,0.54zm-4.77 -59.62c-0.22,-2.9 -0.38,-5.26 -0.42,-6.94 -0.05,-1.66 -0.09,-2.61 -0.09,-2.61 0,0 0.11,-0.95 0.3,-2.61 0.18,-1.63 0.54,-4.02 0.98,-6.79 0.23,-1.37 0.48,-2.85 0.74,-4.42 0.28,-1.56 0.63,-3.21 0.98,-4.88 0.36,-1.64 0.74,-3.34 1.11,-5.07 0.45,-1.7 0.89,-3.43 1.34,-5.15 0.88,-3.38 1.93,-6.73 2.93,-9.75 0.96,-3 2.04,-5.81 2.92,-8.12 0.87,-2.3 1.64,-4.18 2.23,-5.51 0.57,-1.3 0.9,-2.05 0.9,-2.05 0,0 -0.21,0.76 -0.57,2.09 -0.39,1.37 -0.82,3.25 -1.35,5.61 -0.26,1.17 -0.56,2.48 -0.84,3.85 -0.25,1.39 -0.51,2.85 -0.79,4.36 -0.58,3.11 -0.96,6.38 -1.4,9.84 -0.74,6.8 -1.1,14.02 -1.07,19.53 0.03,2.75 0.03,5.13 0.11,6.77 0.08,1.65 0.12,2.59 0.12,2.59 0,0 -0.08,0.93 -0.23,2.56 -0.15,1.65 -0.34,4.01 -0.46,6.85 -0.31,5.72 -0.45,13.56 -0.11,21.63 0.1,2.04 0.19,4.07 0.28,6.08 0.15,2.02 0.3,4.01 0.45,5.93 0.29,3.9 0.68,7.55 1.06,10.71 0.36,3.16 0.7,5.85 0.98,7.69 0.27,1.87 0.43,2.93 0.43,2.93 0,0 -1.3,-4.24 -2.9,-10.57 -1.66,-6.27 -3.5,-14.64 -4.92,-22.71 -1.35,-8.17 -2.32,-16.01 -2.71,-21.84zm-54.77 0.44c-1.79,-0.37 -4.36,-0.93 -7.47,-1.67 -6.18,-1.48 -14.41,-3.88 -22.51,-6.95 -8.12,-3.02 -16.12,-6.7 -21.99,-9.74 -2.96,-1.5 -5.43,-2.82 -7.08,-3.78 -1.69,-0.97 -2.65,-1.51 -2.65,-1.51 0,0 -0.96,-0.75 -2.64,-2.05 -0.84,-0.66 -1.86,-1.47 -3.03,-2.39 -1.13,-0.95 -2.41,-2.03 -3.8,-3.2 -2.79,-2.37 -6.07,-5.2 -9.36,-8.37 -1.67,-1.6 -3.4,-3.26 -5.15,-4.94 -1.72,-1.71 -3.41,-3.47 -5.12,-5.26 -1.69,-1.78 -3.42,-3.6 -5.05,-5.4 -1.59,-1.83 -3.17,-3.63 -4.69,-5.37 -3.08,-3.53 -5.77,-6.89 -8.06,-9.81 -2.28,-2.92 -4.23,-5.41 -5.47,-7.15 -1.26,-1.74 -1.99,-2.74 -1.99,-2.74 0,0 0.78,0.83 2.15,2.29 1.34,1.44 3.37,3.51 5.82,5.93 2.47,2.42 5.25,5.19 8.46,8.09 3.21,2.89 6.59,5.9 10.1,8.81 3.56,2.91 7.11,5.72 10.48,8.26 3.46,2.54 6.69,4.81 9.46,6.71 2.77,1.9 5.22,3.4 6.86,4.44 1.67,1.04 2.62,1.62 2.62,1.62 0,0 0.91,0.73 2.48,2 1.62,1.25 3.97,3 6.76,5.03 5.59,4.08 13.33,9.11 21.22,13.48 3.96,2.19 8.01,4.2 11.75,6 3.85,1.73 7.36,3.28 10.44,4.49 3.11,1.2 5.67,2.13 7.46,2.77 0.89,0.32 1.6,0.56 2.09,0.71 0.49,0.16 0.75,0.24 0.75,0.24 0,0 -1.06,-0.16 -2.84,-0.54zm6.5 -5.04c0.06,-1.85 0.14,-4.49 0.24,-7.66 0.15,-3.13 0.45,-6.8 0.75,-10.58 0.41,-3.84 0.84,-7.82 1.41,-11.75 1.17,-7.89 2.68,-15.4 4.03,-20.91 0.67,-2.71 1.24,-4.98 1.63,-6.56 0.45,-1.57 0.7,-2.47 0.7,-2.47 0,0 0.38,-0.85 1.05,-2.33 0.67,-1.48 1.57,-3.53 2.78,-6 1.22,-2.47 2.63,-5.29 4.14,-8.21 1.58,-2.97 3.29,-6.07 4.98,-9.05 1.73,-3.01 3.54,-5.99 5.18,-8.68 1.63,-2.68 3.31,-5.21 4.65,-7.29 1.37,-2.08 2.49,-3.77 3.33,-4.99 0.83,-1.2 1.3,-1.88 1.3,-1.88 0,0 -1.51,3 -3.56,7.53 -1.06,2.3 -2.3,5.02 -3.51,7.92 -0.63,1.49 -1.28,3.02 -1.94,4.58 -0.64,1.57 -1.24,3.15 -1.87,4.77 -0.63,1.64 -1.26,3.29 -1.87,4.9 -0.57,1.63 -1.14,3.23 -1.68,4.78 -1.14,3.18 -2.05,6.14 -2.84,8.74 -0.4,1.31 -0.77,2.52 -1.09,3.58 -0.3,1.07 -0.55,2.01 -0.76,2.77 -0.42,1.56 -0.66,2.45 -0.66,2.45 0,0 -0.35,0.83 -0.96,2.28 -0.64,1.48 -1.45,3.55 -2.41,6.1 -1.98,5.13 -4.4,12.17 -6.48,19.59 -2.11,7.4 -3.83,15.18 -4.92,21.17 -0.52,3.04 -0.95,5.56 -1.25,7.33 -0.29,1.8 -0.4,2.82 -0.4,2.82 0,0 -0.01,-0.27 -0.01,-0.77 0,-0.5 0.01,-1.23 0.04,-2.18zm-48.16 -75.05c-4.91,-3.51 -11.5,-8.46 -17.65,-13.83 -1.55,-1.36 -3.11,-2.72 -4.63,-4.05 -1.5,-1.36 -2.94,-2.71 -4.34,-4.04 -2.78,-2.65 -5.42,-5.19 -7.56,-7.4 -4.27,-4.43 -7.08,-7.51 -7.08,-7.51 0,0 -0.65,-0.94 -1.8,-2.57 -1.08,-1.64 -2.64,-4 -4.5,-6.83 -0.92,-1.43 -1.92,-2.99 -2.97,-4.64 -1.02,-1.67 -2.04,-3.46 -3.11,-5.32 -2.13,-3.73 -4.38,-7.77 -6.59,-11.88 -1.14,-2.03 -2.13,-4.14 -3.1,-6.23 -0.96,-2.1 -1.91,-4.17 -2.83,-6.17 -1.78,-4.04 -3.52,-7.84 -4.79,-11.19 -2.5,-6.72 -4.06,-11.33 -4.06,-11.33 0,0 1.92,4.02 4.93,9.86 1.44,2.93 3.46,6.22 5.54,9.71 2.11,3.49 4.38,7.15 6.72,10.74 4.8,7.12 10.06,13.85 13.92,18.78 1.91,2.48 3.71,4.44 4.89,5.83 1.21,1.38 1.9,2.17 1.9,2.17 0,0 0.61,0.9 1.68,2.48 1.06,1.56 2.61,3.8 4.58,6.44 1.97,2.64 4.19,5.68 6.74,8.86 2.59,3.19 5.31,6.52 8.16,9.77 2.91,3.24 5.78,6.41 8.58,9.29 2.86,2.88 5.53,5.48 7.82,7.67 4.76,4.34 7.95,7.05 7.95,7.05 0,0 -3.36,-2.16 -8.4,-5.66zm15.64 -5.3c1.07,-2.86 2.31,-6.19 3.65,-9.76 1.37,-3.51 2.93,-7.22 4.42,-10.82 6.18,-14.54 13.13,-27.8 13.13,-27.8 0,0 0.53,-0.75 1.46,-2.06 0.95,-1.3 2.18,-3.17 3.87,-5.33 3.36,-4.33 7.58,-9.94 11.95,-15.17 2.22,-2.53 4.44,-5.06 6.52,-7.43 2.06,-2.3 3.85,-4.42 5.62,-6.12 3.37,-3.35 5.61,-5.58 5.61,-5.58 0,0 -1.94,2.6 -4.84,6.5 -1.46,2.01 -2.95,4.46 -4.72,7.12 -0.88,1.34 -1.79,2.73 -2.71,4.15 -0.95,1.42 -1.93,2.89 -2.77,4.42 -1.79,3.08 -3.58,6.17 -5.26,9.07 -0.84,1.47 -1.7,2.91 -2.47,4.3 -0.73,1.41 -1.43,2.74 -2.07,3.96 -1.31,2.51 -2.4,4.59 -3.16,6.05 -0.73,1.47 -1.14,2.31 -1.14,2.31 0,0 -2.02,2.97 -5.05,7.44 -1.52,2.27 -3.18,4.91 -5.05,7.84 -0.93,1.48 -1.88,3.01 -2.86,4.56 -0.93,1.57 -1.88,3.17 -2.83,4.77 -3.9,6.49 -7.48,13.24 -10.22,18.5 -2.62,5.33 -4.37,8.89 -4.37,8.89 0,0 1.32,-3.93 3.29,-9.81zm-25.46 -78.92c-3.74,-4.62 -8.01,-11.02 -12.28,-17.76 -1.04,-1.68 -2.14,-3.38 -3.11,-5.07 -0.93,-1.71 -1.85,-3.4 -2.74,-5.02 -1.77,-3.3 -3.38,-6.43 -4.73,-9.16 -1.41,-2.72 -2.36,-5.03 -3.06,-6.66 -0.69,-1.63 -1.08,-2.56 -1.08,-2.56 0,0 -1.24,-4.32 -2.93,-11.01 -0.72,-3.33 -1.47,-7.26 -2.24,-11.54 -0.38,-2.14 -0.78,-4.37 -1.14,-6.64 -0.25,-2.28 -0.51,-4.59 -0.78,-6.91 -0.23,-2.34 -0.46,-4.68 -0.68,-6.99 -0.1,-1.17 -0.2,-2.32 -0.3,-3.46 -0.05,-1.14 -0.09,-2.26 -0.13,-3.37 -0.16,-4.42 -0.24,-8.6 -0.27,-12.21 -0.05,-3.62 0.19,-6.56 0.26,-8.67 0.1,-2.11 0.16,-3.31 0.16,-3.31 0,0 0.2,4.38 0.77,10.8 0.38,3.26 0.88,7.02 1.46,11 0.31,1.98 0.63,4.02 0.95,6.09 0.38,2.07 0.86,4.18 1.31,6.26 0.92,4.17 1.91,8.27 2.88,12.06 1.11,3.81 2.24,7.31 3.22,10.27 0.98,2.96 1.83,5.39 2.43,7.08 0.29,0.84 0.58,1.51 0.76,1.96 0.18,0.45 0.28,0.69 0.28,0.69 0,0 1.15,4.27 3.03,10.46 0.48,1.53 1,3.19 1.55,4.95 0.64,1.74 1.33,3.56 2.04,5.46 1.43,3.75 2.99,7.69 4.61,11.55 1.8,3.86 3.65,7.65 5.41,11.13 0.88,1.73 1.73,3.4 2.55,4.98 0.84,1.57 1.74,3.03 2.52,4.38 3.18,5.37 5.35,8.81 5.35,8.81 0,0 -2.46,-2.95 -6.07,-7.59zm14.98 -1.16c0.78,-1.28 1.56,-2.66 2.49,-4.09 0.94,-1.42 1.93,-2.92 2.96,-4.47 2.01,-2.99 4.16,-6.19 6.3,-9.39 2.26,-3.02 4.52,-6.05 6.64,-8.89 1.04,-1.37 2.03,-2.69 2.98,-3.95 1.01,-1.21 1.97,-2.35 2.86,-3.41 3.45,-4.09 5.75,-6.82 5.75,-6.82 0,0 0.16,-0.14 0.45,-0.4 0.31,-0.26 0.72,-0.66 1.32,-1.13 1.16,-0.93 2.82,-2.27 4.81,-3.87 1.93,-1.53 4.19,-3.3 6.61,-5.21 2.47,-1.74 5.11,-3.59 7.75,-5.44 1.29,-0.89 2.54,-1.79 3.82,-2.62 1.3,-0.81 2.59,-1.6 3.83,-2.37 2.4,-1.47 4.64,-2.83 6.56,-4.01 3.91,-2.13 6.51,-3.55 6.51,-3.55 0,0 -0.61,0.46 -1.67,1.26 -1.03,0.81 -2.68,1.92 -4.42,3.39 -1.8,1.5 -3.91,3.24 -6.16,5.11 -0.58,0.49 -1.17,0.98 -1.76,1.48 -0.56,0.51 -1.13,1.04 -1.7,1.57 -1.17,1.08 -2.36,2.17 -3.54,3.27 -1.22,1.13 -2.44,2.26 -3.64,3.37 -1.14,1.17 -2.26,2.33 -3.34,3.44 -2.23,2.33 -4.31,4.49 -6.1,6.35 -3.43,3.98 -5.71,6.64 -5.71,6.64 0,0 -0.63,0.55 -1.73,1.53 -1.1,0.98 -2.73,2.38 -4.5,4.18 -1.83,1.82 -3.97,3.95 -6.26,6.23 -1.17,1.18 -2.38,2.41 -3.61,3.65 -1.22,1.27 -2.36,2.59 -3.57,3.92 -4.74,5.32 -9.81,10.97 -13.19,15.4 -3.54,4.49 -5.9,7.49 -5.9,7.49 0,0 2.06,-3.46 5.16,-8.66zm-1.07 -82.59c-0.75,-2.71 -1.62,-5.92 -2.46,-9.41 -0.72,-3.44 -1.43,-7.17 -2.07,-10.96 -0.32,-1.89 -0.67,-3.82 -0.89,-5.68 -0.21,-1.87 -0.41,-3.72 -0.61,-5.5 -0.36,-3.58 -0.65,-6.99 -0.85,-9.91 -0.23,-5.76 -0.26,-9.68 -0.26,-9.68 0,0 0.12,-1.1 0.32,-3.01 0.18,-1.94 0.57,-4.61 1.09,-7.84 0.54,-3.22 1.12,-7.08 1.95,-11.1 0.85,-3.99 1.82,-8.27 2.86,-12.58 1.11,-4.2 2.31,-8.39 3.47,-12.35 1.16,-3.97 2.41,-7.47 3.45,-10.59 1.05,-3.09 1.96,-5.68 2.63,-7.4 0.67,-1.75 1.05,-2.75 1.05,-2.75 0,0 -0.25,0.93 -0.67,2.57 -0.21,0.82 -0.46,1.81 -0.75,2.96 -0.27,1.17 -0.57,2.49 -0.9,3.93 -0.64,2.88 -1.36,6.23 -2.08,9.81 -0.69,3.62 -1.33,7.56 -1.93,11.43 -0.63,3.84 -1.06,7.82 -1.44,11.51 -0.35,3.71 -0.71,7.06 -0.84,10.05 -0.28,5.97 -0.35,9.86 -0.35,9.86 0,0 -0.14,1.04 -0.39,2.85 -0.23,1.81 -0.44,4.47 -0.7,7.6 -0.12,1.56 -0.25,3.25 -0.38,5.04 -0.06,0.89 -0.12,1.8 -0.18,2.73 -0.02,0.95 -0.05,1.91 -0.07,2.9 -0.08,3.93 -0.1,8.07 -0.06,12.15 0.21,4.17 0.48,8.27 0.79,12.06 0.08,0.95 0.15,1.88 0.23,2.78 0.12,0.92 0.24,1.82 0.35,2.69 0.25,1.73 0.49,3.37 0.71,4.88 0.45,3 0.86,5.46 1.15,7.17 0.33,1.73 0.57,2.72 0.57,2.72 0,0 -0.31,-0.9 -0.85,-2.46 -0.47,-1.54 -1.13,-3.76 -1.89,-6.47zm6.72 9.11c0.31,-0.3 0.67,-0.67 1.15,-1.12 1.26,-1.17 3.07,-2.83 5.23,-4.83 1.06,-0.97 2.21,-2.03 3.43,-3.14 0.6,-0.55 1.22,-1.11 1.86,-1.69 0.66,-0.55 1.34,-1.12 2.04,-1.69 2.69,-2.23 5.57,-4.62 8.45,-7 2.94,-2.2 5.87,-4.4 8.62,-6.47 0.67,-0.5 1.33,-0.99 1.98,-1.47 0.67,-0.46 1.33,-0.92 1.98,-1.36 1.26,-0.87 2.46,-1.69 3.57,-2.45 2.21,-1.49 3.96,-2.74 5.27,-3.57 1.31,-0.82 2.05,-1.3 2.05,-1.3 0,0 3.01,-1.38 7.51,-3.46 2.19,-1.02 4.93,-2.11 7.69,-3.29 2.79,-1.18 5.67,-2.41 8.7,-3.56 2.93,-1.15 5.86,-2.29 8.61,-3.36 2.76,-1.02 5.33,-1.97 7.53,-2.79 1.08,-0.4 2.06,-0.77 2.94,-1.1 0.9,-0.32 1.68,-0.6 2.33,-0.83 1.28,-0.46 2.01,-0.72 2.01,-0.72 0,0 -0.74,0.38 -2.05,1.05 -1.34,0.67 -3.13,1.64 -5.32,2.81 -2.17,1.18 -4.86,2.54 -7.56,4.04 -2.75,1.53 -5.69,3.16 -8.63,4.78 -2.92,1.71 -5.85,3.42 -8.58,5.02 -2.76,1.63 -5.22,3.24 -7.45,4.61 -2.22,1.37 -4.1,2.54 -5.31,3.4 -1.26,0.86 -1.98,1.34 -1.98,1.34 0,0 -2.92,1.47 -7.3,3.66 -2.17,1.2 -4.69,2.6 -7.4,4.09 -1.39,0.78 -2.82,1.59 -4.28,2.41 -1.47,0.84 -2.85,1.74 -4.32,2.64 -2.96,1.87 -5.92,3.74 -8.69,5.49 -2.73,1.91 -5.27,3.69 -7.46,5.22 -2.23,1.6 -4.1,2.94 -5.41,3.88 -0.54,0.42 -0.95,0.75 -1.28,1 -0.43,0.34 -0.69,0.54 -0.69,0.54 0,0 0.28,-0.29 0.76,-0.78zm32.96 -80.04c0.25,-3.86 0.87,-8.88 1.51,-14.01 0.67,-5.1 1.6,-10.1 2.28,-13.92 0.34,-1.92 0.67,-3.46 0.9,-4.55 0.24,-1.09 0.37,-1.72 0.37,-1.72 0,0 0.94,-2.71 2.34,-6.78 1.44,-4.05 3.49,-9.35 5.62,-14.63 4.28,-10.5 8.97,-20.53 8.97,-20.53 0,0 -0.79,2.39 -1.97,5.98 -1.16,3.56 -2.67,8.46 -4.09,13.38 -1.43,4.87 -2.71,9.95 -3.65,13.69 -0.95,3.73 -1.49,6.31 -1.49,6.31 0,0 -0.88,2.65 -2.2,6.62 -1.33,3.93 -2.83,9.41 -4.31,14.74 -1.39,5.45 -2.62,10.88 -3.45,14.96 -0.73,4.11 -1.21,6.85 -1.21,6.85 0,0 0.15,-2.56 0.38,-6.39zm21.18 -2.01c4.86,-2.35 9.46,-4.73 13.08,-6.39 3.55,-1.69 5.91,-2.82 5.91,-2.82 0,0 9.19,-3.09 18.39,-6.19 4.54,-1.55 9.07,-3.1 12.48,-4.27 3.37,-1.19 5.62,-1.98 5.62,-1.98 0,0 -9.41,4.62 -18.9,9.08 -9.49,4.53 -18.98,9.06 -18.98,9.06 0,0 -0.56,0.19 -1.55,0.53 -0.99,0.34 -2.41,0.83 -4.1,1.41 -3.35,1.21 -7.97,2.77 -12.54,4.47 -4.52,1.72 -9.26,3.43 -12.71,4.84 -3.5,1.42 -5.83,2.37 -5.83,2.37 0,0 2.39,-1.32 5.98,-3.3 3.62,-1.92 8.43,-4.4 13.15,-6.81zm39.76 -62.19c4.03,-4.37 6.72,-7.28 6.72,-7.28 0,0 2.9,-2.83 7.25,-7.07 4.33,-4.26 10.08,-9.96 15.63,-15.85 1.39,-1.48 2.78,-2.95 4.14,-4.4 1.33,-1.49 2.64,-2.94 3.9,-4.36 2.57,-2.8 4.82,-5.53 6.77,-7.86 0.97,-1.17 1.86,-2.24 2.65,-3.19 0.76,-0.98 1.41,-1.83 1.95,-2.53 1.09,-1.41 1.71,-2.21 1.71,-2.21 0,0 -0.58,0.83 -1.59,2.29 -0.51,0.73 -1.12,1.61 -1.83,2.63 -0.74,0.99 -1.57,2.11 -2.48,3.32 -1.83,2.44 -3.94,5.3 -6.36,8.24 -1.19,1.49 -2.42,3.02 -3.67,4.58 -1.28,1.53 -2.59,3.09 -3.9,4.64 -5.22,6.23 -10.64,12.29 -14.7,16.82 -4.08,4.52 -6.8,7.53 -6.8,7.53 0,0 -10.49,10.26 -21.38,20.91 -0.43,0.42 -0.86,0.84 -1.28,1.26 -2.83,2.78 -5.64,5.57 -8.23,8.22 -2.62,2.64 -5.06,5.1 -7.09,7.26 -2.06,2.15 -3.77,3.94 -4.97,5.19 -1.18,1.27 -1.85,2 -1.85,2 0,0 0.62,-0.77 1.71,-2.12 1.12,-1.33 2.71,-3.22 4.63,-5.5 1.9,-2.29 4.18,-4.91 6.63,-7.7 2.43,-2.81 5.07,-5.77 7.73,-8.72 0.41,-0.44 0.81,-0.89 1.21,-1.34 4.9,-5.44 9.78,-10.71 13.5,-14.76zm406.83 298.72c-2.74,-5.26 -6.32,-12.01 -10.21,-18.5 -0.95,-1.6 -1.91,-3.2 -2.84,-4.77 -0.97,-1.55 -1.93,-3.08 -2.86,-4.56 -1.86,-2.93 -3.53,-5.57 -5.05,-7.84 -3.03,-4.47 -5.04,-7.44 -5.04,-7.44 0,0 -0.42,-0.84 -1.15,-2.31 -0.76,-1.46 -1.85,-3.54 -3.16,-6.05 -0.64,-1.22 -1.34,-2.55 -2.07,-3.96 -0.77,-1.39 -1.62,-2.83 -2.47,-4.3 -1.68,-2.9 -3.47,-5.99 -5.26,-9.07 -0.84,-1.53 -1.82,-3 -2.76,-4.42 -0.93,-1.42 -1.84,-2.81 -2.72,-4.15 -1.76,-2.66 -3.26,-5.11 -4.72,-7.12 -2.9,-3.9 -4.83,-6.5 -4.83,-6.5 0,0 2.24,2.23 5.6,5.58 1.77,1.7 3.57,3.82 5.63,6.12 2.08,2.37 4.29,4.9 6.51,7.43 4.38,5.23 8.59,10.84 11.95,15.17 1.7,2.16 2.92,4.03 3.87,5.33 0.93,1.31 1.46,2.06 1.46,2.06 0,0 6.95,13.26 13.14,27.8 1.48,3.6 3.05,7.31 4.42,10.82 1.33,3.57 2.57,6.9 3.64,9.76 1.98,5.88 3.29,9.81 3.29,9.81 0,0 -1.75,-3.56 -4.37,-8.89zm16.27 2.99c2.29,-2.19 4.97,-4.79 7.82,-7.67 2.8,-2.88 5.67,-6.05 8.59,-9.29 2.84,-3.25 5.56,-6.58 8.15,-9.77 2.56,-3.18 4.77,-6.22 6.74,-8.86 1.97,-2.64 3.53,-4.88 4.58,-6.44 1.07,-1.58 1.68,-2.48 1.68,-2.48 0,0 0.7,-0.79 1.9,-2.17 1.18,-1.39 2.98,-3.35 4.89,-5.83 3.87,-4.93 9.12,-11.66 13.93,-18.78 2.33,-3.59 4.6,-7.25 6.71,-10.74 2.09,-3.49 4.1,-6.78 5.54,-9.71 3.02,-5.84 4.94,-9.86 4.94,-9.86 0,0 -1.57,4.61 -4.06,11.33 -1.27,3.35 -3.02,7.15 -4.8,11.19 -0.92,2 -1.86,4.07 -2.83,6.17 -0.97,2.09 -1.96,4.2 -3.1,6.23 -2.21,4.11 -4.45,8.15 -6.59,11.88 -1.07,1.86 -2.09,3.65 -3.11,5.32 -1.05,1.65 -2.05,3.21 -2.97,4.64 -1.86,2.83 -3.41,5.19 -4.5,6.83 -1.14,1.63 -1.8,2.57 -1.8,2.57 0,0 -2.8,3.08 -7.08,7.51 -2.14,2.21 -4.78,4.75 -7.56,7.4 -1.4,1.33 -2.83,2.68 -4.33,4.04 -1.53,1.33 -3.08,2.69 -4.64,4.05 -6.15,5.37 -12.74,10.32 -17.65,13.83 -5.04,3.5 -8.4,5.66 -8.4,5.66 0,0 3.19,-2.71 7.95,-7.05zm-5.45 -82.82c-3.38,-4.43 -8.45,-10.08 -13.19,-15.4 -1.2,-1.33 -2.34,-2.65 -3.56,-3.92 -1.24,-1.24 -2.44,-2.47 -3.62,-3.65 -2.29,-2.28 -4.43,-4.41 -6.26,-6.23 -1.76,-1.8 -3.4,-3.2 -4.5,-4.18 -1.1,-0.98 -1.73,-1.53 -1.73,-1.53 0,0 -2.28,-2.66 -5.71,-6.64 -1.78,-1.86 -3.86,-4.02 -6.1,-6.35 -1.08,-1.11 -2.2,-2.27 -3.34,-3.44 -1.2,-1.11 -2.41,-2.24 -3.63,-3.37 -1.19,-1.1 -2.38,-2.19 -3.54,-3.27 -0.58,-0.53 -1.14,-1.06 -1.7,-1.57 -0.6,-0.5 -1.19,-0.99 -1.77,-1.48 -2.25,-1.87 -4.35,-3.61 -6.16,-5.11 -1.73,-1.47 -3.39,-2.58 -4.42,-3.39 -1.06,-0.8 -1.67,-1.26 -1.67,-1.26 0,0 2.61,1.42 6.51,3.55 1.92,1.18 4.16,2.54 6.57,4.01 1.24,0.77 2.52,1.56 3.82,2.37 1.29,0.83 2.53,1.73 3.83,2.62 2.63,1.85 5.27,3.7 7.74,5.44 2.42,1.91 4.68,3.68 6.61,5.21 1.99,1.6 3.65,2.94 4.81,3.87 0.6,0.47 1.02,0.87 1.32,1.13 0.3,0.26 0.46,0.4 0.46,0.4 0,0 2.3,2.73 5.75,6.82 0.88,1.06 1.84,2.2 2.85,3.41 0.95,1.26 1.95,2.58 2.98,3.95 2.12,2.84 4.38,5.87 6.65,8.89 2.14,3.2 4.28,6.4 6.29,9.39 1.03,1.55 2.02,3.05 2.97,4.47 0.92,1.43 1.7,2.81 2.48,4.09 3.1,5.2 5.17,8.66 5.17,8.66 0,0 -2.37,-3 -5.91,-7.49zm15 -1.23c0.79,-1.35 1.68,-2.81 2.53,-4.38 0.81,-1.58 1.66,-3.25 2.55,-4.98 1.76,-3.48 3.6,-7.27 5.4,-11.13 1.62,-3.86 3.18,-7.8 4.62,-11.55 0.71,-1.9 1.39,-3.72 2.04,-5.46 0.55,-1.76 1.06,-3.42 1.54,-4.95 1.88,-6.19 3.03,-10.46 3.03,-10.46 0,0 0.1,-0.24 0.29,-0.69 0.17,-0.45 0.46,-1.12 0.75,-1.96 0.6,-1.69 1.45,-4.12 2.43,-7.08 0.98,-2.96 2.11,-6.46 3.22,-10.27 0.98,-3.79 1.96,-7.89 2.88,-12.06 0.45,-2.08 0.93,-4.19 1.31,-6.26 0.32,-2.07 0.64,-4.11 0.95,-6.09 0.59,-3.98 1.08,-7.74 1.46,-11 0.57,-6.42 0.77,-10.8 0.77,-10.8 0,0 0.06,1.2 0.17,3.31 0.06,2.11 0.3,5.05 0.25,8.67 -0.03,3.61 -0.11,7.79 -0.26,12.21 -0.05,1.11 -0.09,2.23 -0.14,3.37 -0.09,1.14 -0.19,2.29 -0.3,3.46 -0.22,2.31 -0.45,4.65 -0.68,6.99 -0.26,2.32 -0.52,4.63 -0.78,6.91 -0.36,2.27 -0.75,4.5 -1.13,6.64 -0.78,4.28 -1.53,8.21 -2.25,11.54 -1.69,6.69 -2.93,11.01 -2.93,11.01 0,0 -0.39,0.93 -1.08,2.56 -0.7,1.63 -1.65,3.94 -3.05,6.66 -1.36,2.73 -2.97,5.86 -4.73,9.16 -0.9,1.62 -1.81,3.31 -2.75,5.02 -0.96,1.69 -2.06,3.39 -3.11,5.07 -4.27,6.74 -8.54,13.14 -12.28,17.76 -3.61,4.64 -6.07,7.59 -6.07,7.59 0,0 2.18,-3.44 5.35,-8.81zm-18.47 -182.02c-0.72,-3.58 -1.43,-6.93 -2.08,-9.81 -0.33,-1.44 -0.63,-2.76 -0.9,-3.93 -0.29,-1.15 -0.54,-2.14 -0.75,-2.96 -0.42,-1.64 -0.66,-2.57 -0.66,-2.57 0,0 0.38,1 1.04,2.75 0.68,1.72 1.58,4.31 2.63,7.4 1.04,3.12 2.29,6.62 3.45,10.59 1.17,3.96 2.36,8.15 3.47,12.35 1.04,4.31 2.01,8.59 2.86,12.58 0.83,4.02 1.42,7.88 1.95,11.1 0.53,3.23 0.92,5.9 1.09,7.84 0.2,1.91 0.32,3.01 0.32,3.01 0,0 -0.03,3.92 -0.26,9.68 -0.19,2.92 -0.49,6.33 -0.85,9.91 -0.2,1.78 -0.4,3.63 -0.6,5.5 -0.23,1.86 -0.58,3.79 -0.89,5.68 -0.65,3.79 -1.36,7.52 -2.07,10.96 -0.85,3.49 -1.71,6.7 -2.47,9.41 -0.75,2.71 -1.42,4.93 -1.89,6.47 -0.54,1.56 -0.85,2.46 -0.85,2.46 0,0 0.24,-0.99 0.57,-2.72 0.3,-1.71 0.7,-4.17 1.16,-7.17 0.22,-1.51 0.45,-3.15 0.7,-4.88 0.12,-0.87 0.23,-1.77 0.35,-2.69 0.08,-0.9 0.16,-1.83 0.24,-2.78 0.3,-3.79 0.58,-7.89 0.78,-12.06 0.04,-4.08 0.02,-8.22 -0.05,-12.15 -0.03,-0.99 -0.05,-1.95 -0.07,-2.9 -0.07,-0.93 -0.13,-1.84 -0.18,-2.73 -0.14,-1.79 -0.27,-3.48 -0.38,-5.04 -0.27,-3.13 -0.48,-5.79 -0.71,-7.6 -0.25,-1.81 -0.39,-2.85 -0.39,-2.85 0,0 -0.06,-3.89 -0.35,-9.86 -0.13,-2.99 -0.49,-6.34 -0.84,-10.05 -0.37,-3.69 -0.81,-7.67 -1.44,-11.51 -0.6,-3.87 -1.24,-7.81 -1.93,-11.43zm-2.65 107.84c-1.31,-0.94 -3.17,-2.28 -5.41,-3.88 -2.18,-1.53 -4.73,-3.31 -7.46,-5.22 -2.77,-1.75 -5.73,-3.62 -8.69,-5.49 -1.47,-0.9 -2.85,-1.8 -4.32,-2.64 -1.46,-0.82 -2.89,-1.63 -4.28,-2.41 -2.71,-1.49 -5.23,-2.89 -7.39,-4.09 -4.39,-2.19 -7.31,-3.66 -7.31,-3.66 0,0 -0.72,-0.48 -1.97,-1.34 -1.22,-0.86 -3.1,-2.03 -5.31,-3.4 -2.23,-1.37 -4.69,-2.98 -7.45,-4.61 -2.74,-1.6 -5.66,-3.31 -8.58,-5.02 -2.94,-1.62 -5.88,-3.25 -8.64,-4.78 -2.7,-1.5 -5.39,-2.86 -7.56,-4.04 -2.19,-1.17 -3.98,-2.14 -5.32,-2.81 -1.31,-0.67 -2.05,-1.05 -2.05,-1.05 0,0 0.73,0.26 2.01,0.72 0.65,0.23 1.44,0.51 2.33,0.83 0.88,0.33 1.87,0.7 2.94,1.1 2.21,0.82 4.78,1.77 7.53,2.79 2.75,1.07 5.68,2.21 8.61,3.36 3.03,1.15 5.91,2.38 8.7,3.56 2.76,1.18 5.51,2.27 7.69,3.29 4.51,2.08 7.51,3.46 7.51,3.46 0,0 0.75,0.48 2.06,1.3 1.3,0.83 3.05,2.08 5.26,3.57 1.11,0.76 2.31,1.58 3.58,2.45 0.64,0.44 1.3,0.9 1.98,1.36 0.64,0.48 1.3,0.97 1.97,1.47 2.75,2.07 5.69,4.27 8.62,6.47 2.88,2.38 5.76,4.77 8.46,7 0.69,0.57 1.37,1.14 2.04,1.69 0.63,0.58 1.25,1.14 1.85,1.69 1.22,1.11 2.37,2.17 3.43,3.14 2.17,2 3.97,3.66 5.24,4.83 0.47,0.45 0.84,0.82 1.14,1.12 0.48,0.49 0.76,0.78 0.76,0.78 0,0 -0.25,-0.2 -0.69,-0.54 -0.32,-0.25 -0.74,-0.58 -1.28,-1zm-39.62 -73.55c-3.45,-1.41 -8.2,-3.12 -12.72,-4.84 -4.57,-1.7 -9.19,-3.26 -12.53,-4.47 -1.7,-0.58 -3.11,-1.07 -4.1,-1.41 -0.99,-0.34 -1.56,-0.53 -1.56,-0.53 0,0 -9.49,-4.53 -18.97,-9.06 -9.49,-4.46 -18.91,-9.08 -18.91,-9.08 0,0 2.25,0.79 5.63,1.98 3.4,1.17 7.94,2.72 12.48,4.27 9.19,3.1 18.39,6.19 18.39,6.19 0,0 2.36,1.13 5.9,2.82 3.62,1.66 8.23,4.04 13.08,6.39 4.72,2.41 9.53,4.89 13.15,6.81 3.59,1.98 5.98,3.3 5.98,3.3 0,0 -2.33,-0.95 -5.82,-2.37zm-0.72 -35.89c-1.32,-3.97 -2.2,-6.62 -2.2,-6.62 0,0 -0.54,-2.58 -1.48,-6.31 -0.94,-3.74 -2.23,-8.82 -3.66,-13.69 -1.42,-4.92 -2.93,-9.82 -4.08,-13.38 -1.18,-3.59 -1.97,-5.98 -1.97,-5.98 0,0 4.69,10.03 8.97,20.53 2.12,5.28 4.17,10.58 5.61,14.63 1.41,4.07 2.34,6.78 2.34,6.78 0,0 0.14,0.63 0.37,1.72 0.23,1.09 0.56,2.63 0.9,4.55 0.69,3.82 1.61,8.82 2.28,13.92 0.65,5.13 1.26,10.15 1.51,14.01 0.23,3.83 0.38,6.39 0.38,6.39 0,0 -0.48,-2.74 -1.21,-6.85 -0.83,-4.08 -2.06,-9.51 -3.45,-14.96 -1.47,-5.33 -2.98,-10.81 -4.31,-14.74zm-18.78 4.1c-1.2,-1.25 -2.91,-3.04 -4.97,-5.19 -2.04,-2.16 -4.47,-4.62 -7.09,-7.26 -2.6,-2.65 -5.41,-5.44 -8.23,-8.22 -0.43,-0.42 -0.86,-0.84 -1.29,-1.26 -10.88,-10.65 -21.37,-20.91 -21.37,-20.91 0,0 -2.72,-3.01 -6.81,-7.53 -4.06,-4.53 -9.48,-10.59 -14.7,-16.82 -1.31,-1.55 -2.61,-3.11 -3.9,-4.64 -1.25,-1.56 -2.48,-3.09 -3.67,-4.58 -2.42,-2.94 -4.52,-5.8 -6.35,-8.24 -0.91,-1.21 -1.75,-2.33 -2.49,-3.32 -0.7,-1.02 -1.32,-1.9 -1.82,-2.63 -1.01,-1.46 -1.59,-2.29 -1.59,-2.29 0,0 0.62,0.8 1.7,2.21 0.54,0.7 1.2,1.55 1.95,2.53 0.79,0.95 1.68,2.02 2.65,3.19 1.95,2.33 4.2,5.06 6.77,7.86 1.27,1.42 2.57,2.87 3.9,4.36 1.37,1.45 2.76,2.92 4.15,4.4 5.54,5.89 11.29,11.59 15.62,15.85 4.35,4.24 7.26,7.07 7.26,7.07 0,0 2.68,2.91 6.71,7.28 3.72,4.05 8.6,9.32 13.5,14.77 0.41,0.44 0.81,0.89 1.21,1.33 2.66,2.95 5.3,5.91 7.73,8.72 2.46,2.79 4.74,5.41 6.64,7.7 1.91,2.28 3.5,4.17 4.62,5.5 1.09,1.35 1.72,2.12 1.72,2.12 0,0 -0.68,-0.73 -1.85,-2zm158.85 245.33c-1.72,1.18 -4.19,2.86 -7.2,4.91 -3.03,2.03 -6.53,4.37 -10.52,6.87 -3.99,2.51 -8.32,5.16 -12.77,7.79 -9.04,5.3 -18.64,10.48 -27.05,14.79 -4.2,2.19 -8.04,4.19 -11.28,5.87 -3.27,1.75 -5.82,3.29 -7.62,4.6 -2.11,1.55 -4.49,3.76 -7.04,6.38 -2.63,2.61 -5.49,5.62 -8.47,8.82 -6.07,6.37 -12.76,13.41 -19.33,19.6 -4.6,4.32 -9.01,8.26 -12.87,11.53 3.84,-6.01 7.43,-12.19 10.69,-18.52 3.96,-7.73 7.6,-15.62 10.67,-23.69 1.64,-4 2.95,-8.11 4.39,-12.15 0.68,-2.05 1.28,-4.1 1.92,-6.15 0.36,-1.16 0.72,-2.32 1.06,-3.49 0.94,-0.1 1.99,-0.22 3.15,-0.38 4.51,-0.59 10.68,-1.6 17.34,-3.25 6.65,-1.64 13.58,-3.94 19.87,-6.88 6.24,-2.94 11.59,-6.52 15.14,-10.5 2.86,-3.35 7.8,-11.52 12.79,-22.21 1.27,-2.67 2.44,-5.48 3.7,-8.41 1.23,-2.94 2.52,-5.97 3.61,-9.19 1.13,-3.18 2.26,-6.45 3.36,-9.76 1.07,-3.32 2.28,-6.61 3.11,-10.04 0.9,-3.39 1.74,-6.78 2.56,-10.11 0.76,-3.35 1.66,-6.58 2.17,-9.82 1.15,-6.43 2.11,-12.43 2.87,-17.56 1.08,-10.4 1.56,-17.28 1.56,-17.28 0,0 -2.63,3.67 -6.81,9.21 -2.1,2.76 -4.56,5.98 -7.35,9.42 -2.9,3.41 -6.07,7.04 -9.36,10.69 -1.65,1.81 -3.32,3.65 -4.99,5.48 -1.67,1.82 -3.36,3.61 -5.14,5.35 -3.5,3.46 -6.91,6.83 -10.06,9.94 -6.17,6.21 -11.74,11.25 -14.19,14.64 -5.59,8.1 -13.42,26.77 -21.56,42.51 -3.03,5.88 -5.99,11.38 -8.56,15.93 5.7,-23.55 8.52,-47.24 9.02,-70.17 3.8,-1.62 10.39,-4.64 17.44,-8.83 2.73,-1.62 5.53,-3.41 8.26,-5.34 2.68,-1.93 5.21,-4.03 7.58,-6.21 4.7,-4.38 8.68,-9.18 10.75,-13.91 0.82,-2.01 1.76,-5.31 2.73,-9.61 0.49,-2.16 0.98,-4.55 1.47,-7.16 0.42,-2.61 0.74,-5.44 1.08,-8.44 0.33,-2.99 0.64,-6.16 0.92,-9.45 0.2,-3.28 0.24,-6.69 0.31,-10.19 0.02,-1.75 0.03,-3.52 0.05,-5.29 0.02,-1.78 0.02,-3.58 -0.1,-5.37 -0.18,-3.58 -0.4,-7.19 -0.66,-10.79 -0.15,-1.8 -0.23,-3.61 -0.45,-5.37 -0.23,-1.77 -0.46,-3.52 -0.68,-5.25 -0.47,-3.47 -0.96,-6.87 -1.46,-10.15 -1.2,-6.48 -2.51,-12.46 -3.67,-17.55 -1.34,-4.99 -2.51,-9.12 -3.34,-12 -0.43,-1.44 -0.75,-2.57 -0.98,-3.34 -0.23,-0.76 -0.37,-1.15 -0.37,-1.15 0,0 -0.21,1.01 -0.65,2.86 -0.45,1.82 -1.1,4.45 -1.89,7.64 -0.81,3.18 -1.8,6.89 -2.95,10.91 -1.26,4.07 -2.68,8.44 -4.2,12.85 -0.78,2.19 -1.56,4.41 -2.35,6.63 -0.88,2.22 -1.77,4.45 -2.64,6.64 -1.77,4.36 -3.53,8.55 -5.17,12.41 -3.57,7.81 -6.48,14.22 -7.54,18.17 -0.69,2.36 -1.27,5.4 -1.78,8.9 -0.25,1.75 -0.48,3.62 -0.69,5.57 -0.23,1.95 -0.6,4 -0.88,6.11 -0.28,2.1 -0.57,4.26 -0.86,6.46 -0.27,2.19 -0.53,4.42 -0.96,6.66 -0.73,4.45 -1.48,8.94 -2.2,13.29 -1.52,6.94 -2.77,13.38 -4.07,18.63 -0.03,-2.21 -0.07,-4.42 -0.14,-6.61 -0.79,-22.82 -4.42,-44.59 -10.26,-64.3 0.66,-0.62 1.43,-1.35 2.3,-2.22 2.84,-2.75 6.39,-6.63 9.93,-11.27 1.77,-2.31 3.54,-4.82 5.2,-7.44 1.67,-2.63 3.23,-5.39 4.44,-8.12 2.48,-5.49 4.2,-11.21 4.3,-16.26 -0.03,-4.18 -1.19,-13.56 -4.27,-24.83 -0.37,-1.42 -0.76,-2.88 -1.15,-4.36 -0.46,-1.46 -0.93,-2.93 -1.4,-4.43 -0.97,-3.01 -2,-6.11 -3.09,-9.28 -1.15,-3.08 -2.39,-6.19 -3.65,-9.33l-1.92 -4.71c-0.69,-1.52 -1.38,-3.04 -2.07,-4.55 -1.38,-3.01 -2.77,-6.03 -4.18,-8.91 -1.46,-2.82 -2.89,-5.57 -4.26,-8.22 -0.7,-1.32 -1.39,-2.62 -2.07,-3.88 -0.69,-1.22 -1.37,-2.41 -2.02,-3.57 -1.34,-2.31 -2.6,-4.48 -3.75,-6.48 -2.34,-3.95 -4.33,-7.05 -5.73,-9.26 -1.41,-2.19 -2.21,-3.43 -2.21,-3.43 0,0 0.14,3.67 0.36,9.37 0.18,5.65 0.27,13.64 0.18,22 -0.04,4.17 -0.2,8.61 -0.33,12.85 -0.08,2.13 -0.16,4.23 -0.24,6.28 -0.11,2.1 -0.22,4.13 -0.32,6.09 -0.21,3.92 -0.37,7.51 -0.44,10.62 -0.13,3.16 -0.13,5.81 0.08,7.76 0.23,2.33 0.94,5.16 1.65,8.57 0.74,3.38 1.71,7.17 2.78,11.18 0.92,4.09 1.96,8.4 3.02,12.72 0.9,4.39 1.8,8.82 2.67,13.1 0.68,4.31 1.34,8.47 1.95,12.29 0.34,2.54 0.59,4.92 0.81,7.11 -1.32,-3.77 -2.71,-7.46 -4.2,-11.04 -2.41,-6.28 -5.34,-12.14 -8.03,-17.88 -3.01,-5.58 -5.77,-11.08 -8.92,-16.1 -2.95,-5.15 -6.17,-9.87 -9.17,-14.46 -0.7,-1.06 -1.42,-2.08 -2.15,-3.09 1.61,-1.99 4.26,-5.46 6.75,-9.64 1.96,-3.29 3.81,-7.02 4.97,-10.78 1.13,-3.71 1.55,-7.42 0.8,-10.71 -0.33,-1.38 -1.11,-3.64 -2.37,-6.35 -1.25,-2.72 -2.91,-6.01 -4.86,-9.66 -1.97,-3.57 -4.26,-7.44 -6.71,-11.44 -2.47,-3.88 -5.09,-7.95 -7.73,-11.79 -5.27,-7.7 -10.54,-14.82 -14.44,-19.96 -3.93,-5.08 -6.47,-8.37 -6.47,-8.37 0,0 -0.22,2.23 -0.49,5.82 -0.27,3.58 -0.64,8.48 -0.97,13.73 -0.31,5.31 -0.61,10.96 -0.65,15.92 -0.05,5.01 0.13,9.33 0.93,11.89 0.95,3 3.43,7.79 6.65,13.17 1.56,2.74 3.29,5.65 5.08,8.59 1.81,2.93 3.54,6.02 5.32,8.93 1.45,2.36 2.78,4.73 4.05,6.95 -6.01,-7.71 -11.65,-14.38 -16.65,-20.06 -0.38,-0.82 -0.8,-1.7 -1.27,-2.68 -2.25,-4.58 -5.45,-10.85 -9.32,-17.43 -7.68,-13.23 -17.83,-27.66 -25,-34.69 -6.07,-6.03 -25.64,-20.15 -41.35,-35.18 -2.04,-1.84 -3.86,-3.78 -5.72,-5.64 -1.85,-1.86 -3.65,-3.7 -5.25,-5.55 -1.63,-1.84 -3.23,-3.59 -4.68,-5.29 -1.39,-1.74 -2.69,-3.38 -3.88,-4.89 -0.6,-0.76 -1.18,-1.48 -1.72,-2.17 -0.53,-0.7 -0.98,-1.39 -1.42,-2.02 -0.89,-1.28 -1.66,-2.39 -2.29,-3.3 -1.27,-1.84 -1.98,-2.87 -1.98,-2.87 0,0 0.42,1.18 1.15,3.28 0.37,1.06 0.82,2.34 1.35,3.82 0.26,0.75 0.52,1.55 0.85,2.38 0.34,0.82 0.7,1.68 1.08,2.59 0.76,1.82 1.59,3.8 2.47,5.92 0.95,2.08 2.03,4.25 3.12,6.56 1.07,2.33 2.31,4.66 3.61,7.06 1.29,2.4 2.57,4.93 4.03,7.34 5.59,9.91 12.16,19.87 17.92,28.2 5.77,8.34 10.79,14.98 13.69,18.16 6.9,7.58 21.06,17.77 33.53,26.1 6.25,4.17 12.04,7.96 16.33,10.69 0.85,0.56 1.63,1.06 2.35,1.52 4.92,5.69 10.46,12.37 16.34,20.08 -1.77,-1.78 -3.61,-3.62 -5.63,-5.43 -2.51,-2.27 -5.01,-4.64 -7.62,-6.81 -2.61,-2.18 -5.17,-4.27 -7.59,-6.16 -4.96,-3.68 -9.24,-6.6 -12.19,-7.69 -4.92,-1.88 -16.86,-1.75 -27.18,-1.31 -5.21,0.21 -10.05,0.49 -13.57,0.72 -3.5,0.23 -5.77,0.38 -5.77,0.38 0,0 3.12,2.54 7.92,6.47 4.79,3.87 11.18,8.97 17.76,14.13 13.2,10.3 26.81,21.1 31.29,23.2 2.67,1.21 6.15,1.48 9.9,1.25 3.69,-0.21 7.67,-0.93 11.35,-1.78 4.68,-1.09 8.86,-2.41 11.3,-3.22 0.7,1 1.41,2.02 2.09,3.08 2.92,4.56 6.05,9.26 8.9,14.36 3.05,4.99 5.71,10.44 8.61,15.96 2.58,5.68 5.41,11.47 7.71,17.67 1.41,3.6 2.76,7.31 4.04,11.09 -1.15,-1.88 -2.4,-3.92 -3.82,-6.05 -2.15,-3.02 -4.49,-6.31 -6.91,-9.71 -2.62,-3.26 -5.31,-6.55 -7.96,-9.72 -2.85,-3.08 -5.65,-6.04 -8.3,-8.72 -2.81,-2.62 -5.47,-4.95 -7.87,-6.89 -2.37,-1.95 -4.72,-3.38 -6.55,-4.35 -1.58,-0.81 -3.83,-1.62 -6.53,-2.41 -2.76,-0.75 -6,-1.46 -9.44,-2.12 -1.72,-0.33 -3.5,-0.64 -5.3,-0.94 -1.83,-0.25 -3.72,-0.52 -5.62,-0.79 -3.8,-0.49 -7.52,-0.93 -11.23,-1.27 -7.44,-0.69 -14.15,-1.14 -19.21,-1.42 -4.9,-0.26 -8.06,-0.44 -8.06,-0.44 0,0 0.87,0.71 2.41,1.96 1.56,1.23 3.81,2.99 6.53,5.14 1.33,1.06 2.78,2.21 4.33,3.44 0.78,0.62 1.58,1.25 2.41,1.89 0.79,0.65 1.6,1.31 2.43,1.99 1.67,1.35 3.42,2.75 5.2,4.19 1.74,1.44 3.51,2.92 5.31,4.42 0.91,0.75 1.83,1.5 2.75,2.25l2.64 2.28c1.79,1.53 3.58,3.05 5.34,4.55 1.68,1.52 3.36,3.02 5.03,4.47 0.84,0.73 1.67,1.44 2.48,2.14 0.78,0.72 1.53,1.42 2.27,2.11 6.14,5.43 10.91,10.05 13.76,11.78 3.2,2.09 7.74,3.77 13.06,5.2 2.68,0.71 5.39,1.41 8.16,2.06 2.77,0.66 5.6,1.27 8.35,1.83 5.56,1.09 10.7,2.09 14.44,2.83 1.2,0.22 2.24,0.41 3.12,0.57 1.72,5.98 3.24,12.15 4.44,18.5 0.35,1.77 0.81,3.54 1.07,5.35 0.27,1.8 0.54,3.62 0.82,5.45 0.51,3.65 1.22,7.31 1.48,11.06 0.34,3.74 0.7,7.51 1.05,11.31 0.14,3.82 0.29,7.66 0.43,11.54 0.04,2.01 0.06,4.03 0.06,6.06 -1.34,-5.05 -3.29,-11.04 -5.27,-17.18 -1.51,-3.93 -3.1,-7.91 -4.7,-11.77 -0.75,-1.93 -1.69,-3.8 -2.61,-5.61 -0.91,-1.82 -1.81,-3.58 -2.71,-5.26 -0.91,-1.68 -1.73,-3.3 -2.68,-4.78 -0.96,-1.48 -1.9,-2.87 -2.8,-4.14 -1.81,-2.53 -3.5,-4.6 -5.02,-6.04 -2.71,-2.42 -8.37,-5.58 -14.91,-8.57 -3.42,-1.46 -7.1,-2.86 -10.79,-4.16 -1.84,-0.65 -3.7,-1.27 -5.53,-1.86 -1.9,-0.57 -3.8,-1.1 -5.65,-1.59 -3.69,-1 -7.22,-1.85 -10.4,-2.55 -3.3,-0.68 -6.28,-1.2 -8.76,-1.62 -2.49,-0.41 -4.49,-0.7 -5.87,-0.9 -1.39,-0.18 -2.18,-0.28 -2.18,-0.28 0,0 0.19,0.16 0.46,0.49 0.29,0.33 0.71,0.81 1.24,1.42 1.08,1.23 2.65,2.99 4.65,5.15 1.79,2.21 4,4.82 6.44,7.71 1.15,1.49 2.35,3.04 3.57,4.63 0.64,0.8 1.28,1.62 1.93,2.43 0.66,0.83 1.21,1.7 1.84,2.56 1.26,1.75 2.53,3.51 3.8,5.27 0.69,0.88 1.27,1.79 1.86,2.71 0.6,0.92 1.2,1.84 1.8,2.75 1.23,1.84 2.45,3.66 3.63,5.42 1.08,1.83 2.17,3.61 3.25,5.32 1.1,1.72 2.15,3.37 3.13,4.9 0.9,1.58 1.79,3.05 2.62,4.39 1.66,2.66 3.15,4.77 4.3,6.04 2.6,3.02 6.78,6.14 11.85,9.23 2.51,1.55 5.27,3.1 8,4.62 2.69,1.53 5.45,3.04 8.15,4.46 6.91,3.66 13.39,6.84 17.16,8.67 -0.77,22.48 -3.84,45.72 -9.69,68.61 -0.18,-5.06 -0.56,-11.01 -1.22,-17.16 -1.84,-16.8 -6.14,-35.05 -11.19,-42.5 -2.06,-3.18 -6.74,-8.05 -13.03,-13.05 -3.08,-2.52 -6.44,-5.08 -9.87,-7.57 -1.68,-1.25 -3.5,-2.45 -5.31,-3.62 -1.81,-1.16 -3.61,-2.29 -5.38,-3.38 -3.54,-2.17 -6.96,-4.15 -10.09,-5.89 -3.23,-1.7 -6.21,-3.13 -8.68,-4.31 -4.98,-2.34 -8.09,-3.65 -8.09,-3.65 0,0 1.49,3.3 4.13,8.6 1.12,2.74 2.48,6 4.07,9.62 0.86,1.78 1.44,3.79 2.23,5.8 0.75,2.02 1.53,4.11 2.38,6.24 0.91,2.12 1.52,4.38 2.3,6.62 0.78,2.26 1.56,4.52 2.32,6.74 0.84,2.23 1.49,4.51 2.2,6.72 0.71,2.23 1.4,4.38 2.07,6.45 2.62,8.23 4.81,14.98 6.6,18.13 1.96,3.64 5.84,7.83 10.42,12.19 4.51,4.33 9.93,8.93 14.96,13.17 5.03,4.22 9.84,8.14 13.39,11.02 0.9,0.72 1.71,1.38 2.43,1.96 -0.35,1.13 -0.71,2.26 -1.08,3.38 -0.65,1.99 -1.27,3.99 -1.95,5.97 -1.46,3.92 -2.8,7.91 -4.45,11.77 -3.09,7.82 -6.73,15.42 -10.68,22.87 -3.23,6.04 -6.76,11.94 -10.54,17.66 1.31,-4.7 2.6,-10.16 3.65,-15.85 1.5,-8.28 2.3,-17.11 2.31,-24.82 -0.06,-3.89 -0.28,-7.5 -0.69,-10.65 -0.48,-3.2 -1.11,-5.92 -1.9,-8.03 -0.66,-1.78 -2.07,-4.21 -3.88,-6.95 -1.83,-2.74 -4.1,-5.81 -6.8,-9.06 -5.27,-6.45 -11.96,-13.41 -18.41,-19.48 -3.29,-3.07 -6.5,-5.93 -9.46,-8.48 -2.96,-2.54 -5.8,-4.85 -8.13,-6.72 -2.36,-1.88 -4.28,-3.36 -5.63,-4.38 -1.37,-1.03 -2.14,-1.62 -2.14,-1.62 0,0 0.26,1 0.61,2.68 0.39,1.72 0.94,4.19 1.61,7.18 1.26,5.96 2.93,14.07 4.41,22.68 1.45,8.57 2.66,17.66 3.57,25.57 0.98,7.93 1.57,14.61 2.58,18 0.63,2.01 1.59,4.26 2.87,6.74 1.27,2.49 2.89,5.23 4.6,8.07 3.39,5.64 7.61,11.98 11.39,17.86 4.8,7.38 9.14,14.06 11.79,18.14 -3.33,4.44 -6.8,8.76 -10.44,12.93 -5.49,6.35 -11.35,12.35 -17.48,18 -6.12,5.66 -12.45,11.05 -19.03,16.03 -0.19,0.15 -0.38,0.28 -0.56,0.42 2.58,-3.92 5.38,-8.46 8.05,-13.25 4.11,-7.46 7.78,-15.61 10.24,-23.01 1.18,-3.74 2.16,-7.21 2.68,-10.42 0.28,-1.59 0.48,-3.09 0.6,-4.47 0.1,-1.4 0.09,-2.71 0,-3.87 -0.16,-1.98 -0.72,-4.72 -1.74,-8.02 -1.04,-3.31 -2.44,-7.09 -4.17,-11.08 -1.79,-4.04 -3.82,-8.23 -6.1,-12.4 -2.34,-4.21 -4.77,-8.3 -7.34,-12.21 -2.59,-3.92 -5.13,-7.53 -7.62,-10.81 -2.5,-3.29 -4.84,-6.17 -6.84,-8.54 -4.07,-4.79 -6.82,-7.64 -6.82,-7.64 0,0 0.26,3.32 0.41,8.59 0.12,5.25 0.13,12.54 -0.51,20.58 -0.6,8.02 -1.91,16.85 -3.41,24.73 -1.42,7.89 -3.06,14.7 -3.14,18.43 -0.02,2.21 0.16,4.8 0.64,7.78 0.47,2.97 1.16,6.28 1.93,9.75 0.78,3.48 1.7,7.17 2.68,10.92 0.99,3.75 1.99,7.52 2.94,11.15 2.04,7.41 3.92,14.26 5.29,19.25 0.29,1.03 0.55,1.95 0.8,2.81 -2.7,1.86 -5.41,3.69 -8.15,5.46 -6.86,4.39 -13.81,8.52 -20.8,12.43 -9.7,5.38 -5.88,7.11 -82.97,37.77 -15.49,6.11 -29.78,11.66 -42.98,16.87 -13.2,-5.21 -27.49,-10.76 -42.98,-16.87l-40.05 -16.64 -13.69 -6.25c-9.73,-4.59 -19.51,-9.49 -29.23,-14.88 -6.98,-3.91 -13.94,-8.04 -20.79,-12.43 -2.75,-1.77 -5.46,-3.6 -8.15,-5.46 0.24,-0.86 0.5,-1.78 0.79,-2.81 1.37,-4.99 3.26,-11.84 5.29,-19.25 0.96,-3.63 1.95,-7.4 2.94,-11.15 0.98,-3.75 1.9,-7.44 2.69,-10.92 0.76,-3.47 1.46,-6.78 1.93,-9.75 0.47,-2.98 0.66,-5.57 0.63,-7.78 -0.08,-3.73 -1.72,-10.54 -3.14,-18.43 -1.49,-7.88 -2.81,-16.71 -3.41,-24.73 -0.64,-8.04 -0.63,-15.33 -0.51,-20.58 0.16,-5.27 0.41,-8.59 0.41,-8.59 0,0 -2.74,2.85 -6.82,7.64 -2,2.37 -4.33,5.25 -6.84,8.54 -2.49,3.28 -5.03,6.89 -7.62,10.81 -2.57,3.91 -4.99,8 -7.33,12.21 -2.28,4.17 -4.32,8.36 -6.11,12.4 -1.73,3.99 -3.12,7.77 -4.17,11.08 -1.02,3.3 -1.58,6.04 -1.74,8.02 -0.08,1.16 -0.1,2.47 0,3.87 0.12,1.38 0.32,2.88 0.6,4.47 0.52,3.21 1.5,6.68 2.68,10.42 2.46,7.4 6.13,15.55 10.24,23.01 2.68,4.79 5.47,9.33 8.06,13.25 -0.19,-0.14 -0.38,-0.27 -0.56,-0.42 -6.59,-4.98 -12.92,-10.37 -19.04,-16.03 -6.13,-5.65 -11.99,-11.65 -17.47,-18 -3.65,-4.17 -7.12,-8.49 -10.45,-12.93 2.66,-4.08 7,-10.76 11.79,-18.14 3.78,-5.88 8,-12.22 11.39,-17.86 1.71,-2.84 3.34,-5.58 4.61,-8.07 1.28,-2.48 2.24,-4.73 2.87,-6.74 1.01,-3.39 1.6,-10.07 2.57,-18 0.91,-7.91 2.12,-17 3.57,-25.57 1.48,-8.61 3.16,-16.72 4.41,-22.68 0.67,-2.99 1.22,-5.46 1.61,-7.18 0.35,-1.68 0.61,-2.68 0.61,-2.68 0,0 -0.77,0.59 -2.14,1.62 -1.34,1.02 -3.27,2.5 -5.62,4.38 -2.34,1.87 -5.17,4.18 -8.14,6.72 -2.95,2.55 -6.17,5.41 -9.45,8.48 -6.46,6.07 -13.15,13.03 -18.42,19.48 -2.7,3.25 -4.97,6.32 -6.79,9.06 -1.81,2.74 -3.23,5.17 -3.89,6.95 -0.79,2.11 -1.42,4.83 -1.9,8.03 -0.4,3.15 -0.62,6.76 -0.68,10.65 0,7.71 0.8,16.54 2.3,24.82 1.06,5.69 2.34,11.15 3.65,15.85 -3.78,-5.72 -7.3,-11.62 -10.54,-17.66 -3.94,-7.45 -7.59,-15.05 -10.68,-22.87 -1.65,-3.86 -2.98,-7.85 -4.45,-11.77 -0.68,-1.98 -1.3,-3.98 -1.95,-5.97 -0.37,-1.12 -0.73,-2.25 -1.08,-3.38 0.72,-0.58 1.53,-1.24 2.44,-1.96 3.55,-2.88 8.35,-6.8 13.38,-11.02 5.03,-4.24 10.46,-8.84 14.97,-13.17 4.57,-4.36 8.46,-8.55 10.42,-12.19 1.78,-3.15 3.97,-9.9 6.6,-18.13 0.66,-2.07 1.35,-4.22 2.07,-6.45 0.7,-2.21 1.35,-4.49 2.19,-6.72 0.77,-2.22 1.54,-4.48 2.32,-6.74 0.79,-2.24 1.39,-4.5 2.31,-6.62 0.84,-2.13 1.62,-4.22 2.37,-6.24 0.79,-2.01 1.37,-4.02 2.23,-5.8 1.59,-3.62 2.95,-6.88 4.07,-9.62 2.65,-5.3 4.13,-8.6 4.13,-8.6 0,0 -3.11,1.31 -8.08,3.65 -2.48,1.18 -5.46,2.61 -8.69,4.31 -3.13,1.74 -6.54,3.72 -10.09,5.89 -1.77,1.09 -3.56,2.22 -5.37,3.38 -1.82,1.17 -3.64,2.37 -5.32,3.62 -3.43,2.49 -6.79,5.05 -9.87,7.57 -6.28,5 -10.96,9.87 -13.03,13.05 -5.04,7.45 -9.35,25.7 -11.18,42.5 -0.66,6.15 -1.05,12.1 -1.22,17.16 -5.85,-22.89 -8.93,-46.13 -9.7,-68.61 3.78,-1.83 10.26,-5.01 17.17,-8.67 2.69,-1.42 5.45,-2.93 8.14,-4.46 2.73,-1.52 5.49,-3.07 8,-4.62 5.07,-3.09 9.26,-6.21 11.86,-9.23 1.15,-1.27 2.63,-3.38 4.3,-6.04 0.83,-1.34 1.71,-2.81 2.61,-4.39 0.99,-1.53 2.04,-3.18 3.14,-4.9 1.07,-1.71 2.16,-3.49 3.24,-5.32 1.18,-1.76 2.4,-3.58 3.64,-5.42 0.59,-0.91 1.19,-1.83 1.8,-2.75 0.58,-0.92 1.17,-1.83 1.85,-2.71 1.27,-1.76 2.54,-3.52 3.8,-5.27 0.63,-0.86 1.18,-1.73 1.84,-2.56 0.65,-0.81 1.3,-1.63 1.93,-2.43 1.23,-1.59 2.42,-3.14 3.57,-4.63 2.44,-2.89 4.65,-5.5 6.45,-7.71 1.99,-2.16 3.56,-3.92 4.64,-5.15 0.54,-0.61 0.95,-1.09 1.24,-1.42 0.28,-0.33 0.46,-0.49 0.46,-0.49 0,0 -0.79,0.1 -2.18,0.28 -1.38,0.2 -3.38,0.49 -5.86,0.9 -2.48,0.42 -5.47,0.94 -8.77,1.62 -3.18,0.7 -6.7,1.55 -10.4,2.55 -1.85,0.49 -3.74,1.02 -5.65,1.59 -1.83,0.59 -3.68,1.21 -5.53,1.86 -3.69,1.3 -7.37,2.7 -10.78,4.16 -6.55,2.99 -12.21,6.15 -14.91,8.57 -1.52,1.44 -3.21,3.51 -5.02,6.04 -0.91,1.27 -1.85,2.66 -2.81,4.14 -0.95,1.48 -1.77,3.1 -2.68,4.78 -0.89,1.68 -1.8,3.44 -2.71,5.26 -0.92,1.81 -1.86,3.68 -2.61,5.61 -1.6,3.86 -3.19,7.84 -4.7,11.77 -1.98,6.14 -3.93,12.13 -5.26,17.18 0,-2.03 0.02,-4.05 0.05,-6.06 0.15,-3.88 0.29,-7.72 0.43,-11.54 0.36,-3.8 0.71,-7.57 1.06,-11.31 0.25,-3.75 0.96,-7.41 1.47,-11.06 0.28,-1.83 0.55,-3.65 0.83,-5.45 0.25,-1.81 0.72,-3.58 1.06,-5.35 1.21,-6.35 2.72,-12.52 4.44,-18.5 0.89,-0.16 1.92,-0.35 3.12,-0.57 3.75,-0.74 8.88,-1.74 14.44,-2.83 2.75,-0.56 5.58,-1.17 8.36,-1.83 2.76,-0.65 5.47,-1.35 8.16,-2.06 5.31,-1.43 9.85,-3.11 13.05,-5.2 2.85,-1.73 7.62,-6.35 13.76,-11.78 0.74,-0.69 1.5,-1.39 2.27,-2.11 0.82,-0.7 1.64,-1.41 2.48,-2.14 1.67,-1.45 3.35,-2.95 5.03,-4.47 1.76,-1.5 3.55,-3.02 5.35,-4.55l2.63 -2.28c0.92,-0.75 1.84,-1.5 2.75,-2.25 1.8,-1.5 3.58,-2.98 5.31,-4.42 1.79,-1.44 3.53,-2.84 5.21,-4.19 0.83,-0.68 1.64,-1.34 2.43,-1.99 0.82,-0.64 1.63,-1.27 2.41,-1.89 1.54,-1.23 2.99,-2.38 4.32,-3.44 2.72,-2.15 4.97,-3.91 6.53,-5.14 1.54,-1.25 2.41,-1.96 2.41,-1.96 0,0 -3.16,0.18 -8.06,0.44 -5.06,0.28 -11.76,0.73 -19.2,1.42 -3.72,0.34 -7.43,0.78 -11.23,1.27 -1.91,0.27 -3.79,0.54 -5.63,0.79 -1.8,0.3 -3.58,0.61 -5.3,0.94 -3.44,0.66 -6.68,1.37 -9.44,2.12 -2.69,0.79 -4.95,1.6 -6.53,2.41 -1.83,0.97 -4.18,2.4 -6.55,4.35 -2.39,1.94 -5.06,4.27 -7.86,6.89 -2.66,2.68 -5.46,5.64 -8.3,8.72 -2.66,3.17 -5.35,6.46 -7.96,9.72 -2.43,3.4 -4.77,6.69 -6.92,9.71 -1.42,2.13 -2.67,4.17 -3.82,6.05 1.29,-3.78 2.63,-7.49 4.05,-11.09 2.29,-6.2 5.12,-11.99 7.7,-17.67 2.91,-5.52 5.56,-10.97 8.61,-15.96 2.86,-5.1 5.98,-9.8 8.91,-14.36 0.67,-1.06 1.38,-2.08 2.08,-3.08 2.44,0.81 6.62,2.13 11.3,3.22 3.69,0.85 7.67,1.57 11.35,1.78 3.75,0.23 7.23,-0.04 9.9,-1.25 4.48,-2.1 18.09,-12.9 31.29,-23.2 6.58,-5.16 12.97,-10.26 17.76,-14.13 4.81,-3.93 7.92,-6.47 7.92,-6.47 0,0 -2.26,-0.15 -5.77,-0.38 -3.52,-0.23 -8.36,-0.51 -13.56,-0.72 -10.33,-0.44 -22.27,-0.57 -27.19,1.31 -2.94,1.09 -7.23,4.01 -12.19,7.69 -2.42,1.89 -4.98,3.98 -7.58,6.16 -2.61,2.17 -5.12,4.54 -7.62,6.81 -2.03,1.81 -3.87,3.65 -5.64,5.43 5.89,-7.71 11.42,-14.39 16.34,-20.08 0.72,-0.46 1.5,-0.96 2.36,-1.52 4.29,-2.73 10.07,-6.52 16.32,-10.69 12.47,-8.33 26.63,-18.52 33.53,-26.1 2.91,-3.18 7.93,-9.82 13.7,-18.16 5.76,-8.33 12.32,-18.29 17.91,-28.2 1.46,-2.41 2.74,-4.94 4.03,-7.34 1.3,-2.4 2.54,-4.73 3.61,-7.06 1.09,-2.31 2.17,-4.48 3.12,-6.56 0.88,-2.12 1.71,-4.1 2.47,-5.92 0.38,-0.91 0.74,-1.77 1.08,-2.59 0.33,-0.83 0.59,-1.63 0.86,-2.38 0.52,-1.48 0.97,-2.76 1.34,-3.82 0.74,-2.1 1.15,-3.28 1.15,-3.28 0,0 -0.71,1.03 -1.98,2.87 -0.63,0.91 -1.39,2.02 -2.28,3.3 -0.45,0.63 -0.9,1.32 -1.43,2.02 -0.54,0.69 -1.11,1.41 -1.71,2.17 -1.2,1.51 -2.5,3.15 -3.89,4.89 -1.44,1.7 -3.05,3.45 -4.68,5.29 -1.59,1.85 -3.39,3.69 -5.25,5.55 -1.86,1.86 -3.68,3.8 -5.72,5.64 -15.71,15.03 -35.28,29.15 -41.35,35.18 -7.17,7.03 -17.31,21.46 -25,34.69 -3.87,6.58 -7.07,12.85 -9.32,17.43 -0.47,0.98 -0.88,1.86 -1.26,2.68 -5.01,5.68 -10.65,12.35 -16.66,20.06 1.27,-2.22 2.6,-4.59 4.05,-6.95 1.78,-2.91 3.52,-6 5.32,-8.93 1.79,-2.94 3.52,-5.85 5.08,-8.59 3.22,-5.38 5.7,-10.17 6.66,-13.17 0.79,-2.56 0.98,-6.88 0.92,-11.89 -0.04,-4.96 -0.33,-10.61 -0.65,-15.92 -0.33,-5.25 -0.69,-10.15 -0.97,-13.73 -0.27,-3.59 -0.49,-5.82 -0.49,-5.82 0,0 -2.54,3.29 -6.46,8.37 -3.91,5.14 -9.18,12.26 -14.45,19.96 -2.64,3.84 -5.26,7.91 -7.73,11.79 -2.44,4 -4.73,7.87 -6.71,11.44 -1.94,3.65 -3.6,6.94 -4.86,9.66 -1.26,2.71 -2.04,4.97 -2.37,6.35 -0.75,3.29 -0.33,7 0.8,10.71 1.17,3.76 3.01,7.49 4.97,10.78 2.49,4.18 5.15,7.65 6.75,9.64 -0.72,1.01 -1.45,2.03 -2.14,3.09 -3.01,4.59 -6.22,9.31 -9.18,14.46 -3.14,5.02 -5.9,10.52 -8.92,16.1 -2.69,5.74 -5.62,11.6 -8.03,17.88 -1.48,3.58 -2.88,7.27 -4.2,11.04 0.23,-2.19 0.47,-4.57 0.82,-7.11 0.6,-3.82 1.26,-7.98 1.94,-12.29 0.87,-4.28 1.78,-8.71 2.67,-13.1 1.06,-4.32 2.1,-8.63 3.03,-12.72 1.06,-4.01 2.03,-7.8 2.77,-11.18 0.72,-3.41 1.42,-6.24 1.65,-8.57 0.22,-1.95 0.21,-4.6 0.09,-7.76 -0.08,-3.11 -0.24,-6.7 -0.45,-10.62 -0.1,-1.96 -0.21,-3.99 -0.32,-6.09 -0.07,-2.05 -0.15,-4.15 -0.23,-6.28 -0.14,-4.24 -0.3,-8.68 -0.34,-12.85 -0.09,-8.36 0,-16.35 0.19,-22 0.21,-5.7 0.35,-9.37 0.35,-9.37 0,0 -0.79,1.24 -2.2,3.43 -1.41,2.21 -3.39,5.31 -5.74,9.26 -1.15,2 -2.41,4.17 -3.74,6.48 -0.66,1.16 -1.34,2.35 -2.03,3.57 -0.67,1.26 -1.36,2.56 -2.07,3.88 -1.37,2.65 -2.79,5.4 -4.26,8.22 -1.41,2.88 -2.79,5.9 -4.18,8.91 -0.69,1.51 -1.37,3.03 -2.06,4.55l-1.93 4.71c-1.26,3.14 -2.49,6.25 -3.65,9.33 -1.09,3.17 -2.12,6.27 -3.09,9.28 -0.47,1.5 -0.93,2.97 -1.39,4.43 -0.4,1.48 -0.78,2.94 -1.16,4.36 -3.08,11.27 -4.24,20.65 -4.27,24.83 0.11,5.05 1.83,10.77 4.3,16.26 1.22,2.73 2.78,5.49 4.44,8.12 1.66,2.62 3.43,5.13 5.2,7.44 3.54,4.64 7.1,8.52 9.93,11.27 0.88,0.87 1.64,1.6 2.3,2.22 -5.84,19.71 -9.47,41.48 -10.26,64.3 -0.07,2.19 -0.11,4.4 -0.14,6.61 -1.3,-5.25 -2.55,-11.69 -4.06,-18.63 -0.72,-4.35 -1.47,-8.84 -2.21,-13.29 -0.43,-2.24 -0.68,-4.47 -0.96,-6.66 -0.29,-2.2 -0.58,-4.36 -0.86,-6.46 -0.28,-2.11 -0.65,-4.16 -0.87,-6.11 -0.22,-1.95 -0.45,-3.82 -0.7,-5.57 -0.5,-3.5 -1.08,-6.54 -1.78,-8.9 -1.06,-3.95 -3.97,-10.36 -7.54,-18.17 -1.64,-3.86 -3.39,-8.05 -5.17,-12.41 -0.87,-2.19 -1.75,-4.42 -2.64,-6.64 -0.78,-2.22 -1.57,-4.44 -2.34,-6.63 -1.52,-4.41 -2.95,-8.78 -4.21,-12.85 -1.15,-4.02 -2.13,-7.73 -2.95,-10.91 -0.79,-3.19 -1.43,-5.82 -1.88,-7.64 -0.45,-1.85 -0.65,-2.86 -0.65,-2.86 0,0 -0.15,0.39 -0.38,1.15 -0.22,0.77 -0.55,1.9 -0.97,3.34 -0.84,2.88 -2.01,7.01 -3.34,12 -1.16,5.09 -2.48,11.07 -3.68,17.55 -0.5,3.28 -0.99,6.68 -1.46,10.15 -0.22,1.73 -0.45,3.48 -0.68,5.25 -0.22,1.76 -0.3,3.57 -0.45,5.37 -0.25,3.6 -0.48,7.21 -0.66,10.79 -0.12,1.79 -0.12,3.59 -0.1,5.37 0.02,1.77 0.04,3.54 0.05,5.29 0.07,3.5 0.12,6.91 0.32,10.19 0.28,3.29 0.58,6.46 0.91,9.45 0.35,3 0.67,5.83 1.08,8.44 0.49,2.61 0.98,5 1.47,7.16 0.97,4.3 1.91,7.6 2.74,9.61 2.06,4.73 6.05,9.53 10.75,13.91 2.37,2.18 4.89,4.28 7.58,6.21 2.73,1.93 5.52,3.72 8.25,5.34 7.05,4.19 13.65,7.21 17.44,8.83 0.5,22.93 3.33,46.62 9.02,70.17 -2.56,-4.55 -5.52,-10.05 -8.56,-15.93 -8.14,-15.74 -15.97,-34.41 -21.56,-42.51 -2.45,-3.39 -8.01,-8.43 -14.19,-14.64 -3.14,-3.11 -6.55,-6.48 -10.06,-9.94 -1.78,-1.74 -3.46,-3.53 -5.13,-5.35 -1.67,-1.83 -3.34,-3.67 -5,-5.48 -3.28,-3.65 -6.46,-7.28 -9.36,-10.69 -2.78,-3.44 -5.25,-6.66 -7.35,-9.42 -4.18,-5.54 -6.8,-9.21 -6.8,-9.21 0,0 0.47,6.88 1.55,17.28 0.76,5.13 1.73,11.13 2.88,17.56 0.5,3.24 1.4,6.47 2.17,9.82 0.81,3.33 1.65,6.72 2.55,10.11 0.84,3.43 2.04,6.72 3.11,10.04 1.1,3.31 2.23,6.58 3.37,9.76 1.09,3.22 2.37,6.25 3.61,9.19 1.25,2.93 2.42,5.74 3.69,8.41 4.99,10.69 9.93,18.86 12.8,22.21 3.55,3.98 8.89,7.56 15.13,10.5 6.3,2.94 13.23,5.24 19.88,6.88 6.65,1.65 12.83,2.66 17.33,3.25 1.16,0.16 2.22,0.28 3.15,0.38 0.34,1.17 0.7,2.33 1.06,3.49 0.64,2.05 1.24,4.1 1.92,6.15 1.44,4.04 2.76,8.15 4.4,12.15 3.06,8.07 6.7,15.96 10.66,23.69 3.27,6.33 6.85,12.51 10.69,18.52 -3.86,-3.27 -8.27,-7.21 -12.87,-11.53 -6.56,-6.19 -13.26,-13.23 -19.33,-19.6 -2.97,-3.2 -5.83,-6.21 -8.46,-8.82 -2.56,-2.62 -4.94,-4.83 -7.04,-6.38 -1.8,-1.31 -4.36,-2.85 -7.62,-4.6 -3.25,-1.68 -7.08,-3.68 -11.29,-5.87 -8.4,-4.31 -18.01,-9.49 -27.05,-14.79 -4.45,-2.63 -8.78,-5.28 -12.77,-7.79 -3.98,-2.5 -7.48,-4.84 -10.52,-6.87 -3,-2.05 -5.47,-3.73 -7.19,-4.91 -1.68,-1.18 -2.63,-1.84 -2.63,-1.84 0,0 0.55,1.55 1.7,4.32 1.14,2.77 2.72,6.72 4.82,11.47 4.27,9.52 10.52,22.22 18.26,34.85 7.75,12.64 17.03,25.07 25.66,34.58 8.55,9.57 16.46,16.22 20.59,18.62 2.42,1.44 5.39,2.56 8.64,3.43 3.26,0.85 6.75,1.47 10.46,1.8 7.47,0.64 15.31,0.38 22.66,-0.56 7.31,-0.9 13.83,-2.26 18.65,-3.49 1.11,-0.28 2.11,-0.54 3,-0.78 3.37,4.64 6.9,9.17 10.61,13.54 5.58,6.65 11.54,12.95 17.78,18.89 6.24,5.95 12.69,11.62 19.39,16.86 0.21,0.16 0.41,0.31 0.61,0.47 -4.56,-1.63 -9.76,-3.58 -15.25,-5.75 -8.42,-3.38 -17.37,-7.41 -25.51,-11.11 -4.03,-1.89 -7.94,-3.59 -11.38,-5.12 -1.75,-0.74 -3.41,-1.41 -4.97,-1.97 -1.54,-0.57 -2.96,-1.06 -4.27,-1.41 -2.2,-0.6 -5.42,-1.01 -9.29,-1.47 -3.85,-0.47 -8.45,-0.9 -13.48,-1.44 -4.95,-0.59 -10.43,-1.22 -16,-2.03 -5.52,-0.85 -11.3,-1.78 -16.84,-2.89 -5.51,-1.12 -10.99,-2.3 -15.95,-3.55 -4.94,-1.25 -9.49,-2.5 -13.37,-3.62 -3.85,-1.12 -6.94,-2.13 -9.13,-2.83 -2.18,-0.71 -3.41,-1.11 -3.41,-1.11 0,0 1.17,1.46 3.26,4.05 2.03,2.59 5.24,6.19 9.06,10.48 7.79,8.52 18.9,19.45 31.44,29.19 12.49,9.81 26.28,18.33 38.11,24.07 11.83,5.83 21.7,8.95 26.52,9.61 2.85,0.41 6.12,0.24 9.55,-0.21 3.44,-0.47 7.08,-1.3 10.81,-2.48 3.73,-1.17 7.5,-2.6 11.2,-4.2 3.71,-1.64 7.35,-3.45 10.78,-5.29 6.86,-3.66 12.94,-7.6 17.29,-10.57 0.89,-0.61 1.69,-1.16 2.43,-1.68 2.74,1.96 5.5,3.88 8.28,5.74 6.97,4.63 14.03,8.99 21.12,13.09 9.88,5.69 19.8,10.86 29.65,15.68 -4.59,-0.47 -9.76,-1.03 -15.19,-1.66 -9.06,-1.04 -18.74,-2.15 -27.44,-3.15 -4.41,-0.44 -8.56,-0.92 -12.34,-1.09 -3.75,-0.25 -7.1,-0.28 -9.83,0.03 -4.59,0.45 -12.83,2.97 -22.85,5.78 -5.02,1.47 -10.45,2.88 -16.11,4.37 -5.65,1.45 -11.48,2.76 -17.26,4.02 -5.74,1.17 -11.41,2.21 -16.7,3.08 -5.26,0.8 -10.14,1.45 -14.3,1.96 -4.17,0.5 -7.59,0.77 -9.99,0.99 -2.4,0.2 -3.75,0.31 -3.75,0.31 0,0 1.64,0.93 4.57,2.58 2.91,1.67 7.16,3.79 12.28,6.35 10.28,4.98 24.26,10.79 38.71,15.14 14.46,4.4 29.28,7.47 41.58,8.83 12.31,1.38 22.08,1.42 26.74,0.48 11.08,-2.1 26.28,-13.36 38.42,-24.43 7.17,-6.52 13.32,-12.89 17.17,-17.04 13.74,6.34 27.23,12.06 40.14,17.45 10.77,4.48 21.12,8.82 30.94,13.11 -7.47,3.02 -14.56,5.94 -21.27,8.82 -22.49,9.57 -40.88,18.49 -57.26,27.16 -3.42,1.75 -4.31,4.68 -3.67,7.6 0.66,2.96 2.9,6.07 5.7,8.74 2.8,2.67 6.15,4.92 9.07,6.12 2.93,1.18 5.43,1.31 6.86,-0.34 3.78,-4.53 9.22,-9.94 16.49,-15.71 7.27,-5.76 16.32,-11.91 27,-18.05 9.82,-5.67 21.01,-11.36 33.27,-17.06 12.26,5.7 23.45,11.39 33.27,17.06 10.69,6.14 19.74,12.29 27,18.05 7.28,5.77 12.72,11.18 16.49,15.71 1.43,1.65 3.93,1.52 6.86,0.34 2.92,-1.2 6.27,-3.45 9.07,-6.12 2.8,-2.67 5.04,-5.78 5.7,-8.74 0.65,-2.92 -0.24,-5.85 -3.67,-7.6 -16.37,-8.67 -34.77,-17.59 -57.26,-27.16 -6.71,-2.88 -13.8,-5.8 -21.27,-8.82 9.83,-4.29 20.18,-8.63 30.94,-13.11 12.91,-5.39 26.4,-11.11 40.14,-17.45 3.85,4.15 10,10.52 17.17,17.04 12.14,11.07 27.34,22.33 38.42,24.43 4.67,0.94 14.43,0.9 26.74,-0.48 12.31,-1.36 27.12,-4.43 41.59,-8.83 14.44,-4.35 28.42,-10.16 38.71,-15.14 5.11,-2.56 9.37,-4.68 12.28,-6.35 2.92,-1.65 4.57,-2.58 4.57,-2.58 0,0 -1.36,-0.11 -3.76,-0.31 -2.4,-0.22 -5.82,-0.49 -9.98,-0.99 -4.17,-0.51 -9.05,-1.16 -14.31,-1.96 -5.28,-0.87 -10.95,-1.91 -16.7,-3.08 -5.77,-1.26 -11.6,-2.57 -17.25,-4.02 -5.67,-1.49 -11.1,-2.9 -16.12,-4.37 -10.02,-2.81 -18.25,-5.33 -22.85,-5.78 -2.73,-0.31 -6.08,-0.28 -9.83,-0.03 -3.78,0.17 -7.93,0.65 -12.34,1.09 -8.7,1 -18.37,2.11 -27.43,3.15 -5.43,0.63 -10.61,1.19 -15.19,1.66 9.84,-4.82 19.76,-9.99 29.64,-15.68 7.09,-4.1 14.15,-8.46 21.12,-13.09 2.78,-1.86 5.54,-3.78 8.29,-5.74 0.73,0.52 1.53,1.07 2.42,1.68 4.35,2.97 10.43,6.91 17.29,10.57 3.43,1.84 7.07,3.65 10.78,5.29 3.7,1.6 7.48,3.03 11.2,4.2 3.73,1.18 7.37,2.01 10.81,2.48 3.44,0.45 6.7,0.62 9.55,0.21 4.83,-0.66 14.69,-3.78 26.52,-9.61 11.84,-5.74 25.62,-14.26 38.11,-24.07 12.54,-9.74 23.66,-20.67 31.44,-29.19 3.82,-4.29 7.03,-7.89 9.07,-10.48 2.08,-2.59 3.25,-4.05 3.25,-4.05 0,0 -1.22,0.4 -3.4,1.11 -2.2,0.7 -5.29,1.71 -9.14,2.83 -3.87,1.12 -8.42,2.37 -13.37,3.62 -4.96,1.25 -10.44,2.43 -15.95,3.55 -5.53,1.11 -11.32,2.04 -16.83,2.89 -5.58,0.81 -11.05,1.44 -16.01,2.03 -5.02,0.54 -9.62,0.97 -13.47,1.44 -3.87,0.46 -7.1,0.87 -9.3,1.47 -1.31,0.35 -2.72,0.84 -4.27,1.41 -1.56,0.56 -3.22,1.23 -4.96,1.97 -3.45,1.53 -7.36,3.23 -11.39,5.12 -8.14,3.7 -17.09,7.73 -25.5,11.11 -5.49,2.17 -10.7,4.12 -15.26,5.75 0.2,-0.16 0.41,-0.31 0.61,-0.47 6.7,-5.24 13.15,-10.91 19.39,-16.86 6.24,-5.94 12.21,-12.24 17.78,-18.89 3.71,-4.37 7.24,-8.9 10.61,-13.54 0.9,0.24 1.89,0.5 3,0.78 4.82,1.23 11.34,2.59 18.66,3.49 7.34,0.94 15.19,1.2 22.65,0.56 3.71,-0.33 7.21,-0.95 10.46,-1.8 3.25,-0.87 6.23,-1.99 8.64,-3.43 4.14,-2.4 12.04,-9.05 20.6,-18.62 8.62,-9.51 17.9,-21.94 25.65,-34.58 7.74,-12.63 14,-25.33 18.26,-34.85 2.1,-4.75 3.69,-8.7 4.82,-11.47 1.15,-2.77 1.7,-4.32 1.7,-4.32 0,0 -0.94,0.66 -2.62,1.84z"/>
  <path class="fil2" d="M256.63 429.9l4.98 0 0 57.73 -4.98 0 0 4.99 29.7 0c3.11,0 5.9,-0.78 8.36,-2.34 2.46,-1.56 3.96,-3.44 4.51,-5.66 0.63,-2.77 0.94,-6.78 0.94,-12.04 0,-3.81 -0.21,-7.1 -0.62,-9.87 -0.84,-5.47 -4.26,-8.48 -10.29,-9.03 4.51,-0.9 7.45,-3.64 8.83,-8.21 0.42,-1.31 0.62,-3.35 0.62,-6.12 0,-2.43 -0.34,-4.78 -1.03,-7.07 -0.76,-2.28 -2.29,-4.08 -4.57,-5.39 -2.29,-1.32 -4.71,-1.98 -7.27,-1.98l-29.18 0 0 4.99zm14.64 26.37l10.8 0c3.74,0 5.92,1.28 6.54,3.84 0.76,3.05 1.14,7.41 1.14,13.09 0,4.08 -0.38,7.62 -1.14,10.59 -0.76,2.63 -2.94,3.95 -6.54,3.95l-10.8 0 0 -31.47zm0 -4.77l0 -21.71 10.18 0c3.25,0 5.26,1.25 6.02,3.74 0.55,1.73 0.83,4.15 0.83,7.27 0,2.63 -0.28,4.95 -0.83,6.96 -0.76,2.49 -2.63,3.74 -5.61,3.74l-10.59 0zm83.91 -26.59l-19.53 0 0 4.99 4.88 0 0 4.88 -19.52 21.6 0 -26.48 4.88 0 0 -4.99 -19.52 0 0 4.99 4.98 0 0 57.73 -4.98 0 0 4.99 19.52 0 0 -4.99 -4.88 0 0 -23.88 19.52 -21.5 0 45.38 -4.88 0 0 4.99 19.53 0 0 -4.99 -4.99 0 0 -57.73 4.99 0 0 -4.99zm36.13 4.99l0 57.73 -4.88 0 0 4.99 19.53 0 0 -4.99 -4.99 0 0 -57.73 4.99 0 0 -4.99 -42.58 0 0 4.99 4.98 0 0 43.61 0 0.83c0,1.52 -0.01,2.68 -0.05,3.48 -0.03,0.8 -0.1,1.87 -0.2,3.22 -0.11,1.35 -0.32,2.37 -0.63,3.06 -0.31,0.7 -0.71,1.44 -1.19,2.24 -0.49,0.79 -1.14,1.36 -1.97,1.71 -0.84,0.35 -1.84,0.52 -3.02,0.52l-1.97 0 0 4.98 1.87 0c4.5,0 7.79,-1.69 9.86,-5.09 1.53,-2.42 2.29,-6.99 2.29,-13.7l0 -44.86 17.96 0zm50.79 0l0 57.73 -4.89 0 0 4.99 19.53 0 0 -4.99 -4.99 0 0 -57.73 4.99 0 0 -4.99 -42.58 0 0 4.99 4.98 0 0 43.61 0 0.83c0,1.52 -0.01,2.68 -0.05,3.48 -0.03,0.8 -0.1,1.87 -0.2,3.22 -0.11,1.35 -0.32,2.37 -0.63,3.06 -0.31,0.7 -0.71,1.44 -1.19,2.24 -0.49,0.79 -1.14,1.36 -1.97,1.71 -0.84,0.35 -1.84,0.52 -3.02,0.52l-1.97 0 0 4.98 1.87 0c4.5,0 7.79,-1.69 9.86,-5.09 1.53,-2.42 2.29,-6.99 2.29,-13.7l0 -44.86 17.97 0zm33.43 0l3.74 0 -13.6 57.73 -4.78 0 0 4.99 13.81 0 0 -4.99 -3.94 0 1.97 -7.78 20.46 0 1.66 7.78 -4.05 0 0 4.99 18.69 0 0 -4.99 -4.78 0 -13.29 -62.72 -15.89 0 0 4.99zm16.62 44.96l-18.38 0 9.66 -41.02 8.72 41.02zm-235.52 58.88l4.98 0 0 57.74 -4.98 0 0 4.99 19.52 0 0 -4.99 -4.88 0 0 -57.74 4.88 0 0 -4.98 -19.52 0 0 4.98zm29.07 0l4.68 0 -18.59 23.99 19.31 38.74 13.19 0 0 -4.99 -4.88 0 -18.59 -37.28 16 -20.46 4.98 0 0 -4.98 -16.1 0 0 4.98zm36.35 0l3.74 0 -13.61 57.74 -4.77 0 0 4.99 13.81 0 0 -4.99 -3.95 0 1.98 -7.79 20.45 0 1.67 7.79 -4.05 0 0 4.99 18.69 0 0 -4.99 -4.78 0 -13.29 -62.72 -15.89 0 0 4.98zm16.62 44.97l-18.39 0 9.66 -41.02 8.73 41.02zm51.29 17.76l19.53 0 0 -4.99 -4.99 0 0 -57.74 4.99 0 0 -4.98 -49.33 0 0 4.98 4.99 0 0 57.74 -4.99 0 0 4.99 19.52 0 0 -4.99 -4.88 0 0 -57.74 20.05 0 0 57.74 -4.89 0 0 4.99zm21.92 -62.73l4.98 0 0 57.74 -4.98 0 0 4.99 19.73 0 0 -4.99 -5.09 0 0 -22.43 11.84 0c4.15,0 7.72,-1.07 10.69,-3.22 2.98,-2.15 4.81,-4.88 5.51,-8.2 0.48,-2.36 0.72,-5.16 0.72,-8.41 0,-3.33 -0.27,-6.55 -0.83,-9.66 -0.55,-3.12 -2.35,-5.7 -5.4,-7.74 -3.04,-2.04 -6.61,-3.06 -10.69,-3.06l-26.48 0 0 4.98zm25.85 0c3.67,0 5.78,1.66 6.34,4.99 0.55,3.46 0.83,6.92 0.83,10.38 0,3.67 -0.28,6.96 -0.83,9.87 -0.69,3.39 -2.81,5.09 -6.34,5.09l-11.21 0 0 -30.33 11.21 0zm71.55 -4.98l-19.52 0 0 4.98 4.88 0 0 4.88 -19.52 21.6 0 -26.48 4.88 0 0 -4.98 -19.52 0 0 4.98 4.98 0 0 57.74 -4.98 0 0 4.99 19.52 0 0 -4.99 -4.88 0 0 -23.88 19.52 -21.5 0 45.38 -4.88 0 0 4.99 19.52 0 0 -4.99 -4.98 0 0 -57.74 4.98 0 0 -4.98z"/>
 </g>
</svg>
