<?xml version="1.0" encoding="UTF-8"?>
<!DOCTYPE svg PUBLIC "-//W3C//DTD SVG 1.1//EN" "http://www.w3.org/Graphics/SVG/1.1/DTD/svg11.dtd">
<!-- Creator: CorelDRAW 2018 (64-Bit) -->
<svg xmlns="http://www.w3.org/2000/svg" xml:space="preserve" width="945px" height="295px" version="1.1" style="shape-rendering:geometricPrecision; text-rendering:geometricPrecision; image-rendering:optimizeQuality; fill-rule:evenodd; clip-rule:evenodd"
viewBox="0 0 945 295.31"
 xmlns:xlink="http://www.w3.org/1999/xlink">
 <defs>
  <style type="text/css">
   <![CDATA[
    .fil0 {fill:black}
   ]]>
  </style>
 </defs>
 <g id="Слой_x0020_1">
  <metadata id="CorelCorpID_0Corel-Layer"/>
  <g id="_2419423879744">
   <g>
    <g>
     <path class="fil0" d="M687.87 113.87l-0.12 0c0.02,0 0.08,0 0.12,0z"/>
     <path class="fil0" d="M275.82 114.07l-0.15 -0.03c0.03,0.03 0.1,0.03 0.15,0.03z"/>
     <path class="fil0" d="M241.48 70.9l-1.24 0.18c-1.37,0.28 -3.92,0.79 -8.43,0.79l-36.62 0.02c-1.18,0.02 -4.9,-0.18 -7.61,-0.47 -1.54,-0.12 -2.41,-0.51 -3.05,-0.79 -0.47,-0.21 -0.88,-0.37 -1.33,-0.37 -1.16,0 -1.61,1.3 -2,2.5l-0.02 0.08c-0.01,0.15 -2.21,9.24 -2.19,10.51 0,1.52 0.97,1.95 1.56,1.95 1.38,0 1.82,-1.27 1.98,-1.68 0.27,-0.65 0.54,-1.25 1.56,-2.82 1.17,-1.72 2.74,-2.53 9.08,-2.62 0,0 9.99,-0.14 13.34,-0.19l0.01 40.19c0.01,9.14 0.01,17.02 -0.45,21.06 -0.44,3.12 -0.94,4.23 -1.99,4.44 -1.02,0.23 -2.05,0.37 -2.7,0.37 -1.29,0 -1.87,0.88 -1.87,1.68 0,1.22 0.89,1.86 2.66,1.86 2.06,0 5.78,-0.15 7.96,-0.24l1.6 -0.05 1.13 0.04c2.18,0.07 6.73,0.23 10.85,0.22 2.48,0.01 2.66,-1.4 2.66,-1.86 0,-0.8 -0.58,-1.66 -1.85,-1.66 -0.81,0 -2.9,-0.17 -4.25,-0.36 -1.87,-0.28 -2.55,-1.3 -2.87,-4.43 -0.5,-4.05 -0.5,-11.95 -0.52,-21.07l0 -40.22c1.82,0.04 11.22,0.19 11.22,0.19 10.39,0.19 10.75,3.04 10.94,4.4 0,0.03 0.1,1.04 0.1,1.04 0.06,0.92 0.17,2.66 1.86,2.66 0.8,0 1.75,-0.62 1.75,-2.36l0.1 -3.09c0.1,-2.47 0.19,-5.78 0.19,-7.65 0,-2.25 -1.18,-2.24 -1.56,-2.25z"/>
     <path class="fil0" d="M275.67 114.04l0.15 0.03c-0.05,0 -0.12,0 -0.15,-0.03zm3.2 -42.48l0 0c-2.68,0 -5.77,0.1 -8.24,0.2l-4.05 0.11 -1.83 -0.07c-2.28,-0.08 -6.09,-0.24 -9.22,-0.24 -1.73,0 -2.63,0.63 -2.63,1.89 0,0.95 0.79,1.65 1.87,1.65 0.92,0 2.43,0.13 3.05,0.26 2.53,0.57 3.2,1.45 3.37,4.58 0.18,3.1 0.18,5.85 0.2,21.02l0 17.19c0,9.15 0.03,17.05 -0.46,21.06 -0.43,3.11 -0.92,4.25 -1.97,4.45 -1.05,0.23 -2.04,0.37 -2.7,0.37 -1.29,0 -1.87,0.87 -1.87,1.67 0.01,0.86 0.45,1.89 2.66,1.89 2.23,-0.02 6.33,-0.19 8.32,-0.26l1.01 -0.03 1.15 0.03c2.18,0.07 6.74,0.24 10.89,0.23 2.45,0 2.63,-1.41 2.63,-1.86 0,-0.8 -0.56,-1.69 -1.85,-1.69 -0.81,0 -2.9,-0.18 -4.25,-0.38 -1.87,-0.27 -2.55,-1.27 -2.88,-4.42 -0.46,-4.01 -0.46,-11.91 -0.46,-21.06l-0.02 -40.11c0,-0.55 0.06,-0.78 0.06,-0.86 0.04,0 0.04,0 0.04,0 0.67,-0.3 2.14,-0.52 3.78,-0.52l0.44 0c2.47,-0.01 7.6,-0.07 12.17,4.55 4.62,4.74 5.15,10.41 5.18,14.28 0,8.34 -6.96,14.85 -15.81,14.85 -1.77,0 -3.76,0 -3.76,1.97 0.02,1.01 0.91,1.76 2.16,1.76l0.03 0c0.52,0.07 1.27,0.1 2.04,0.1 14.79,-0.02 25.1,-10.03 25.1,-24.33 -0.03,-5.51 -2.81,-10.14 -5.23,-12.42 -1.72,-1.6 -6.26,-5.86 -18.92,-5.86z"/>
     <path class="fil0" d="M359.36 132.17c-1.52,0 -1.8,1.54 -1.95,2.37 -0.62,3.67 -1.59,5.29 -3.73,6.23 -2.35,0.98 -6.48,0.98 -8.97,0.98 -9.29,0 -10.22,-1.33 -10.22,-6.94l-0.02 -24.89c2.42,0.02 11,0.23 13.43,0.48 3.52,0.36 3.94,1.86 4.16,2.65 0.35,1.13 0.35,2.02 0.35,2.93 0,1.13 0.75,1.95 1.76,1.95 1.79,0 1.79,-2.12 1.79,-2.94 0,-3.6 0.7,-8.42 1,-10.46l0.15 -1.27c0,-1.37 -0.84,-1.86 -1.58,-1.86 -0.83,0 -1.36,0.63 -2.09,1.43l-0.17 0.21c-0.58,0.65 -1.6,0.82 -3.86,1.01 -1.6,0.14 -8.67,0.19 -14.94,0.19l-0.01 -26.59c1.76,0.02 7.76,0.18 7.76,0.18l3.06 0.07c5.15,0.01 7.26,1.61 7.71,2.6 0.5,1.11 0.77,2.6 0.77,3.27 0,2.03 1.49,2.14 1.76,2.14 0.56,0 1.52,-0.26 1.85,-1.83 0.15,-0.87 0.26,-2.8 0.37,-4.57l0.13 -2c0.18,-1.54 0.4,-2.55 0.57,-3.32l0.23 -1.37c0,-1.26 -0.72,-2.18 -1.67,-2.18 -0.51,0 -0.93,0.24 -1.24,0.44 0,0 -0.35,0.16 -0.45,0.18 -0.38,0.09 -2.27,0.24 -4.07,0.39 -1.48,0.08 -11.23,0.17 -21.97,0.17l-1.27 -0.02c-2.13,-0.08 -6.45,-0.24 -9.77,-0.24 -2.19,0 -2.66,1.01 -2.66,1.85 0,0.96 0.81,1.67 1.87,1.67 0.94,0 2.48,0.11 3.06,0.26 2.65,0.54 3.04,1.53 3.31,3.56 0.16,1.58 0.28,5.54 0.29,22.06l0 17.17c0.01,12.61 -0.21,19.86 -0.66,22.16 -0.58,2.87 -0.97,3.07 -1.91,3.39 -0.62,0.19 -1.61,0.32 -2.57,0.32 -1.31,0.01 -1.89,0.88 -1.89,1.69 0,1.21 0.9,1.86 2.65,1.86l4.46 -0.15 5.13 -0.15 3.68 0.1c3.81,0.17 10.14,0.46 20.45,0.46 3.79,0 5.37,0 6.27,-3.35 0.52,-2.1 1.33,-8.78 1.33,-9.73 0,-0.64 -0.01,-2.56 -1.68,-2.56z"/>
     <path class="fil0" d="M431.19 70.83l-1.23 0.16c-1.37,0.27 -3.93,0.81 -8.42,0.81l-36.61 0.02c-1.06,0 -4.71,-0.2 -7.6,-0.47 -1.57,-0.14 -2.43,-0.51 -3.08,-0.81 -0.46,-0.22 -0.86,-0.37 -1.32,-0.37 -1.18,0 -1.62,1.33 -2,2.49l-0.03 0.15 0 0.01c-0.05,0.11 -2.2,9.21 -2.2,10.44 0,1.34 0.78,1.94 1.58,1.94 1.35,0 1.83,-1.28 1.97,-1.67 0.27,-0.6 0.55,-1.22 1.55,-2.81 1.18,-1.73 2.76,-2.53 9.09,-2.62 0,0 10,-0.14 13.34,-0.21l0.01 40.2c0.01,9.13 0.01,17.06 -0.46,21.06 -0.43,3.1 -0.94,4.24 -1.95,4.43 -1.06,0.25 -2.07,0.38 -2.74,0.38 -1.28,0 -1.86,0.89 -1.87,1.69 0,0.83 0.48,1.85 2.65,1.85 2.11,0 5.78,-0.15 8,-0.2l1.56 -0.09 1.16 0.04c2.19,0.08 6.72,0.25 10.88,0.25 2.43,-0.03 2.64,-1.42 2.64,-1.86 0,-0.82 -0.57,-1.68 -1.87,-1.68 -0.79,0 -2.9,-0.19 -4.25,-0.39 -1.91,-0.25 -2.53,-1.25 -2.86,-4.41 -0.49,-4.04 -0.49,-11.94 -0.51,-21.07l-0.02 -40.22c1.83,0.04 11.21,0.2 11.21,0.2 10.37,0.2 10.78,3.06 10.94,4.4l0.12 1.06c0.04,0.91 0.17,2.65 1.87,2.65 0.8,0 1.76,-0.63 1.76,-2.36l0.07 -3.1 0.18 -7.65c0,-2.24 -1.16,-2.24 -1.56,-2.24z"/>
     <path class="fil0" d="M519.9 143.91c-0.82,0 -2.92,-0.17 -4.24,-0.38 -1.92,-0.27 -2.58,-1.25 -2.88,-4.42 -0.51,-4.04 -0.51,-11.93 -0.52,-21.07l0 -44.12c0.03,-0.39 0.09,-0.77 0.09,-1.11 0,-1.87 -0.84,-2.49 -1.39,-2.7 -1.01,-0.38 -2.11,0.26 -2.98,1.6 -18.83,24.31 -32.29,40.54 -46.47,57.06 -0.02,-3.44 -0.02,-6.69 -0.02,-9.71 0,-24.76 0,-36.51 0.18,-39.19 0.21,-3.52 1.02,-4.25 2.75,-4.57 1.1,-0.2 1.65,-0.28 2.23,-0.28 1.05,0 1.84,-0.74 1.84,-1.68 0,-0.83 -0.44,-1.84 -2.62,-1.84 -2.11,0 -5.78,0.15 -7.98,0.22l-1.6 0.06 -1.26 -0.03c-2.08,-0.09 -6.47,-0.25 -9.78,-0.25 -2.2,0 -2.66,1.01 -2.66,1.84 0,0.97 0.84,1.7 1.88,1.7 0.96,0 2.47,0.1 3.07,0.26 2.52,0.54 3.2,1.42 3.39,4.57 0.09,1.53 0.09,3 0.09,5.93 0,0 0.11,15.05 0.11,15.09l0.02 44.9c-0.06,0.42 -0.1,0.78 -0.1,1.11 0,1.88 0.83,2.49 1.37,2.71 1.05,0.39 2.21,-0.22 3.08,-1.68l-0.07 0.09 1.18 -1.56 8.09 -10.44c13.07,-17.1 26.69,-33.26 37.2,-45.55l0.02 27.57c0,9.14 0,17.05 -0.48,21.07 -0.44,3.12 -0.92,4.23 -1.95,4.45 -1.06,0.21 -2.08,0.35 -2.74,0.35 -1.28,0 -1.86,0.87 -1.86,1.7 0,0.82 0.46,1.85 2.65,1.85 2.09,-0.01 5.79,-0.15 7.97,-0.23l1.59 -0.07 1.13 0.05c2.17,0.09 6.73,0.24 10.86,0.23 2.49,0 2.67,-1.42 2.67,-1.84 0,-0.82 -0.58,-1.69 -1.86,-1.69z"/>
     <path class="fil0" d="M613.64 143.87c-0.8,0 -2.9,-0.19 -4.24,-0.38 -1.91,-0.27 -2.56,-1.25 -2.91,-4.41 -0.48,-4.05 -0.49,-11.94 -0.49,-21.07l-0.01 -44.12c0.07,-0.4 0.09,-0.78 0.09,-1.11 0,-1.89 -0.81,-2.52 -1.37,-2.71 -1.03,-0.39 -2.11,0.25 -3.01,1.58 -18.8,24.34 -32.29,40.52 -46.43,57.08 -0.03,-3.44 -0.03,-6.66 -0.03,-9.68 -0.02,-24.8 0,-36.51 0.18,-39.24 0.19,-3.5 1.01,-4.24 2.72,-4.55 1.13,-0.18 1.67,-0.28 2.27,-0.28 1.05,0 1.86,-0.73 1.85,-1.7 0,-0.83 -0.48,-1.83 -2.65,-1.83 -2.12,0 -5.77,0.14 -7.97,0.22l-1.6 0.08 -1.26 -0.04c-2.09,-0.09 -6.49,-0.26 -9.77,-0.26 -2.2,0 -2.67,1.02 -2.66,1.86 0,0.96 0.79,1.69 1.86,1.67 0.84,0 2.42,0.1 3.06,0.28 2.54,0.53 3.21,1.43 3.4,4.55 0.1,1.55 0.1,3.03 0.1,5.95 0,0 0.08,15.06 0.08,15.09l0.02 44.9c-0.03,0.41 -0.09,0.78 -0.09,1.1 0,1.89 0.84,2.52 1.39,2.73 1.04,0.39 2.18,-0.25 3.06,-1.67l-0.04 0.07 1.17 -1.57c-0.03,0 4.39,-5.65 4.39,-5.65l3.68 -4.78c13.08,-17.09 26.68,-33.25 37.2,-45.54l0.02 27.57c0,9.13 0,17.02 -0.47,21.05 -0.43,3.12 -0.92,4.25 -1.98,4.43 -1.05,0.25 -2.04,0.38 -2.7,0.38 -1.28,0.02 -1.88,0.88 -1.88,1.68 0,0.84 0.47,1.87 2.64,1.87 2.14,0 5.8,-0.15 7.99,-0.23l1.59 -0.06 1.14 0.05c2.19,0.05 6.74,0.23 10.86,0.23 2.47,0 2.67,-1.42 2.67,-1.86 0,-0.81 -0.59,-1.68 -1.87,-1.68z"/>
     <path class="fil0" d="M562.68 59.72c1.69,5.36 6.48,8.09 13.93,7.92 8.23,-0.32 15.83,-7.35 18.07,-10.52 0.26,-0.36 0.69,-0.91 0.69,-1.7l0 -0.12 -0.07 -0.13c-0.2,-0.89 -0.85,-1.42 -1.72,-1.42 -0.66,0 -1.59,0.47 -2.48,1.27 -3.49,3.22 -7.33,4.82 -11.81,4.99 -4.16,0.08 -6.51,-0.68 -9.01,-5.28 0,-0.02 0,-0.07 0,-0.07 0,-0.08 0.02,-0.18 0.02,-0.27 0,-0.42 -0.06,-0.88 -0.47,-1.3l-0.07 -0.05 -0.09 -0.06c-0.48,-0.32 -1.09,-0.5 -1.38,-0.5 -0.87,0 -1.71,0.78 -1.93,1.03l-0.03 0.01 -3.27 3.84 0.06 -0.05c-0.39,0.39 -0.6,0.96 -0.6,1.52 0,0.29 0.06,0.6 0.16,0.89z"/>
     <path class="fil0" d="M562.68 59.74c0,0 0,0 0,-0.02 0,-0.03 -0.02,-0.04 -0.02,-0.05l0.02 0.07z"/>
     <path class="fil0" d="M648.68 100.03c-4.55,-1 -11.33,-2.15 -13.19,-2.15 -2.03,0 -2.25,1.31 -2.25,1.86 0,1.16 0.94,1.59 1.54,1.83l0.41 0.22c1.87,0.92 2.81,2.83 2.81,5.68 0,1.88 -0.38,5.3 -1.01,7.48l-0.11 0.31c-0.31,0.88 -0.51,1.46 -0.51,1.96 0.01,0.93 0.82,1.56 1.56,1.56 0.8,0 1.56,-0.63 2.31,-1.32l0.33 -0.29c0.05,-0.04 0.63,-0.58 0.63,-0.58 3.78,-3.38 7.69,-6.91 10.53,-11.3 0.53,-0.86 0.79,-1.68 0.77,-2.56 0,-1.99 -2.88,-2.52 -3.82,-2.7z"/>
     <path class="fil0" d="M687.75 113.87l0.12 0c-0.04,0 -0.1,0 -0.12,0zm3.21 -42.46l0 0c-2.68,0 -5.79,0.06 -8.26,0.15l-4.06 0.15 -1.83 -0.09c-2.27,-0.1 -6.09,-0.2 -9.2,-0.21 -2.19,0.01 -2.64,0.99 -2.64,1.85 0,0.93 0.8,1.68 1.88,1.68 0.93,0 2.43,0.1 3.05,0.24 2.54,0.54 3.2,1.44 3.39,4.56 0.2,3.13 0.2,5.87 0.2,21.05l0 17.16c0,9.15 0.02,17.06 -0.48,21.06 -0.43,3.14 -0.93,4.25 -1.96,4.46 -1.05,0.23 -2.05,0.36 -2.74,0.36 -1.29,0 -1.85,0.88 -1.85,1.7 0,0.84 0.48,1.87 2.63,1.87 2.27,0 6.38,-0.19 8.35,-0.27l1.07 -0.05 1.11 0.05c2.2,0.06 6.72,0.27 10.87,0.27 2.47,-0.04 2.65,-1.45 2.65,-1.87 0,-0.83 -0.6,-1.7 -1.87,-1.7 -0.78,0 -2.9,-0.17 -4.23,-0.37 -1.9,-0.26 -2.59,-1.3 -2.87,-4.42 -0.52,-4.03 -0.52,-11.95 -0.52,-21.09l-0.02 -40.12c0,-0.53 0.07,-0.76 0.09,-0.85 0.05,0 0.06,0 0.06,0 0.67,-0.29 2.14,-0.51 3.75,-0.5l0.45 -0.01c2.49,0 7.61,-0.07 12.14,4.56 4.66,4.7 5.18,10.41 5.18,14.3 0,8.31 -6.93,14.82 -15.81,14.82 -1.74,0 -3.71,0.01 -3.71,1.96 0,1.02 0.89,1.76 2.13,1.76l0.03 0c0.54,0.1 1.28,0.11 2.04,0.11 14.81,-0.01 25.13,-10.03 25.13,-24.33 -0.02,-5.48 -2.83,-10.12 -5.23,-12.43 -1.74,-1.58 -6.31,-5.84 -18.92,-5.81z"/>
     <path class="fil0" d="M804.91 143.77c-0.77,0 -2.86,-0.16 -4.23,-0.37 -1.88,-0.24 -2.56,-1.28 -2.89,-4.4 -0.47,-4.06 -0.47,-11.96 -0.48,-21.09l-0.01 -44.1c0.06,-0.41 0.08,-0.8 0.08,-1.11 0,-1.88 -0.81,-2.53 -1.39,-2.71 -1.02,-0.39 -2.12,0.24 -2.98,1.57 -18.81,24.31 -32.26,40.51 -46.45,57.09 0,-3.48 0,-6.78 0,-9.84 -0.03,-24.66 0,-36.38 0.14,-39.09 0.2,-3.5 1.01,-4.22 2.75,-4.55 1.11,-0.19 1.64,-0.27 2.22,-0.27 1.07,0 1.86,-0.75 1.86,-1.66 0,-1.26 -0.87,-1.88 -2.62,-1.88 -2.1,0 -5.78,0.14 -7.97,0.23l-1.62 0.07 -1.27 -0.04c-2.08,-0.1 -6.42,-0.24 -9.75,-0.26 -1.75,0.02 -2.65,0.63 -2.65,1.88 0,0.94 0.8,1.66 1.86,1.66 0.95,0 2.48,0.12 3.07,0.27 2.55,0.54 3.19,1.42 3.37,4.55 0.09,1.55 0.09,3.02 0.1,5.95 0,0 0.1,15.06 0.1,15.1l0.02 44.89c-0.05,0.42 -0.08,0.8 -0.08,1.12 -0.01,1.9 0.85,2.48 1.37,2.71 1.06,0.38 2.18,-0.23 3.09,-1.68l-0.07 0.08 1.17 -1.57c0.01,0 8.09,-10.45 8.09,-10.45 13.07,-17.09 26.68,-33.21 37.17,-45.5l0.02 27.55c0,9.12 0.01,17.02 -0.46,21.06 -0.42,3.09 -0.93,4.24 -1.96,4.45 -1.06,0.2 -2.07,0.36 -2.71,0.36 -1.3,0 -1.88,0.87 -1.88,1.69 0,0.84 0.46,1.86 2.64,1.86 2.1,0 5.8,-0.15 8.01,-0.25l1.55 -0.05 1.13 0.04c2.21,0.08 6.76,0.25 10.89,0.25 2.45,0 2.66,-1.43 2.66,-1.87 0,-0.81 -0.6,-1.69 -1.89,-1.69z"/>
     <path class="fil0" d="M915.27 143.74c-0.9,0 -3.35,0 -6.03,-0.83 -3.33,-1.09 -4.07,-5.44 -4.51,-9.43l-6.58 -59.95c-0.13,-1.34 -0.39,-3.59 -2.25,-3.59 -1.49,0 -2.11,1.42 -2.48,2.19 0,0 -22.74,48.67 -27.67,59.26 -1.87,-3.82 -28.93,-59.39 -28.93,-59.39 -0.3,-0.67 -0.94,-2.03 -2.44,-2.03 -1.66,0 -2.02,1.98 -2.12,2.65 -0.02,0.04 -7.04,63.73 -7.04,63.73 0,0.01 -0.03,0.36 -0.03,0.36 -0.4,3.95 -0.83,6.41 -2.99,6.78 -1.36,0.28 -1.97,0.28 -2.73,0.28 -1.18,0 -2.07,0.67 -2.05,1.58 -0.02,0.75 0.35,1.98 2.72,1.98 1.73,0 4.22,-0.12 6.07,-0.2l2.15 -0.1 1.7 0.05c1.98,0.08 4.9,0.23 7.38,0.23 1.89,0 2.87,-0.67 2.87,-1.97 0,-0.88 -0.85,-1.58 -1.86,-1.58 -0.6,0 -1.95,-0.08 -3.49,-0.44 -1.01,-0.21 -1.68,-1.02 -1.68,-1.99 0,-1.66 0,-3.38 0.05,-4.91 0,0.02 2.7,-31.26 3.63,-41.83 3.21,7.13 10.73,23.2 11.5,24.78l0.42 0.82c5.82,11.67 9.53,18.97 11.05,21.83l0.2 0.34c2.01,3.83 2.47,4.72 3.79,4.73 1.45,-0.01 1.89,-0.91 3.52,-4.35l0.67 -1.44c0,0 17.29,-36.77 22.47,-47.73 0.54,5.94 4.38,46.96 4.38,46.96 0.11,1.04 0.14,1.79 0.14,2.31 0,0.26 -0.03,0.44 -0.03,0.61 -1.16,0.38 -1.47,1.05 -1.47,1.59 0,1.9 2.03,2.05 4,2.23 0.96,0.07 2.26,0.06 3.86,0.06l2.6 -0.03 9.95 0c2.9,0 3.13,-1.53 3.13,-1.97 0,-0.29 -0.09,-1.59 -1.87,-1.59z"/>
    </g>
    <path class="fil0" d="M895.07 204.28c0,0 0.18,1.11 0.25,1.53 -0.07,-0.49 -0.25,-1.53 -0.25,-1.53z"/>
    <path class="fil0" d="M220.3 213.15c-0.81,0 -0.97,0.67 -1.07,1.15 -0.13,0.85 -0.8,2.9 -1.88,3.95 -1.88,1.91 -4.26,2.24 -8.28,2.24 -10.27,0 -18.35,-7.81 -18.37,-17.83 0,-4.49 0.57,-9.16 4.57,-12.82 2.43,-2.26 6.18,-3.39 11.43,-3.39 4.11,0 8.02,1.07 9.96,2.68 1.21,0.95 2.04,2.79 2.04,4.64 0,0.51 0,1.62 0.95,1.61 0.37,0 1,-0.24 1.13,-1.57l0.05 -2.53 0.09 -2.71c0,0.03 0.15,-2.04 0.15,-2.04l0.08 -0.82c0,-0.67 -0.45,-1.07 -1.23,-1.07 -1.38,-0.03 -2.73,-0.29 -4.28,-0.58l-0.98 -0.16c-2.72,-0.46 -5.79,-0.6 -7.74,-0.6 -7.1,0 -12.45,1.81 -16.36,5.57 -4.46,4.37 -6.04,10.19 -6.04,14.24 0.01,6.49 2.2,11.68 6.58,15.43 4.36,3.79 9.96,5.55 17.66,5.55 1.98,0 6.93,-0.12 9.67,-1.17 1.06,-0.44 1.28,-0.75 1.62,-1.85 0.52,-1.73 1.27,-6.23 1.27,-6.65 0,-0.6 -0.4,-1.29 -1.02,-1.27z"/>
    <path class="fil0" d="M258.44 183.61l-0.74 0.11 -0.82 0.16c-0.69,0.07 -1.87,0.22 -3.68,0.22l-19.79 0c-0.52,0 -2.55,-0.05 -4.06,-0.23 -0.79,-0.09 -1.28,-0.29 -1.67,-0.43l-0.71 -0.16c-0.51,0 -0.75,0.57 -1.01,1.21l-0.03 0.13 -0.34 1.49c-0.56,2.53 -0.84,3.77 -0.84,4.14 0.01,0.57 0.47,0.97 0.91,0.97 0.56,0 0.91,-0.28 1.06,-0.89l-0.04 0.11 0.16 -0.36c0.1,-0.28 0.25,-0.6 0.65,-1.19 0.58,-0.88 1.43,-1.31 4.87,-1.37 0,0 5.28,-0.1 7,-0.12l0.02 20.74c0,4.94 0,8.85 -0.24,10.91 -0.17,1.54 -0.45,2.12 -1.12,2.27 -0.56,0.15 -1.07,0.23 -1.44,0.24 -0.64,-0.01 -0.94,0.44 -0.95,0.92 0.01,0.41 0.25,0.94 1.38,0.94l4.57 -0.17 0.84 -0.04 0.67 0.03 5.84 0.15c1.29,0.01 1.38,-0.72 1.38,-0.92 0,-0.6 -0.39,-0.99 -0.96,-0.99 -0.42,-0.01 -1.56,-0.11 -2.27,-0.25 -1.17,-0.15 -1.41,-0.64 -1.59,-2.19 -0.25,-2.05 -0.25,-5.96 -0.25,-10.9l0 -20.74c0.93,0.02 5.98,0.12 5.98,0.12 5.56,0.12 5.72,1.55 5.81,2.28l0.07 0.56c0.02,0.45 0.12,1.37 0.93,1.37 0.52,0 1.05,-0.41 1.05,-1.19l0.06 -1.72 0.1 -4.07c0,-0.27 0,-1.14 -0.8,-1.14z"/>
    <path class="fil0" d="M277.1 206.03l-0.06 -0.01c0,0 0.04,0.01 0.06,0.01z"/>
    <polygon class="fil0" points="277.15,206.03 277.12,206.03 277.1,206.03 "/>
    <path class="fil0" d="M289.9 186.95c-0.95,-0.83 -3.45,-3 -10.4,-3l-4.96 0.1 -2.48 0.05 -1.01 -0.04 -5.07 -0.11c-1.15,0 -1.37,0.54 -1.38,0.98 0,0.48 0.49,0.96 0.94,0.96l1.73 0.09c1.36,0.22 1.57,0.66 1.68,2.31 0.1,1.63 0.13,3.03 0.13,10.91l0 8.9c0,4.76 0,8.85 -0.27,10.94l-0.03 0.13c-0.25,1.45 -0.37,1.95 -0.95,2.1 -0.4,0.07 -1.02,0.2 -1.5,0.2 -0.6,0 -0.93,0.51 -0.93,0.98 0,0.27 0.13,0.94 1.38,0.94l4.54 -0.15 0.64 -0.03 0.59 0.03 5.97 0.15c1.26,0 1.37,-0.72 1.37,-0.94 0,-0.47 -0.32,-0.98 -0.94,-0.98 -0.45,0 -1.56,-0.13 -2.25,-0.24 -1.2,-0.16 -1.47,-0.69 -1.63,-2.19 -0.25,-2.08 -0.25,-5.97 -0.25,-10.94l0 -20.61c-0.02,-0.31 0.02,-0.41 0.04,-0.43 0.62,-0.14 1.96,-0.35 2.74,-0.35l0.33 0c1.3,-0.02 4.03,-0.08 6.37,2.28 2.84,2.76 2.84,6.19 2.85,7.32 0,4.34 -3.94,7.63 -9.16,7.64 -0.78,0 -1.93,0 -1.91,1.06 0,0.59 0.56,1.02 1.07,1.02 0.24,0.04 0.68,0.07 1.49,0.06 8.4,0 14.07,-5.11 14.06,-12.65 0,-2.91 -1.53,-5.33 -2.8,-6.49z"/>
    <path class="fil0" d="M320.63 220.86c-9.6,0 -16.03,-7.49 -16.05,-18.65 0,-10.02 5.44,-15.96 14.53,-15.96 7.54,-0.03 15.14,5.53 15.16,17.96 0,15.45 -10.43,16.65 -13.64,16.65zm-1.2 -37.61l0 0c-14.75,0 -21.35,11.89 -21.35,20.33 0,9.84 6.59,20.48 21.05,20.46 12.31,0 21.6,-9.14 21.6,-21.25 -0.02,-11.72 -8.58,-19.54 -21.3,-19.54z"/>
    <path class="fil0" d="M387.18 221.56c-0.42,0 -1.44,-0.13 -2.18,-0.24 -0.99,-0.15 -1.33,-0.63 -1.54,-2.27 -0.21,-2.06 -0.21,-5.92 -0.23,-10.8l0 -22.64c0.02,-0.22 0.06,-0.41 0.06,-0.58 0,-0.93 -0.45,-1.25 -0.74,-1.38 -0.18,-0.07 -0.85,-0.19 -1.5,0.88 -9.62,12.42 -16.45,20.61 -23.51,28.84 0,-9.16 -0.15,-15.62 -0.22,-19.56 -0.02,-1.87 -0.06,-3.24 -0.06,-4.15 0,-0.46 0,-0.77 0.04,-0.98 0.06,-1.81 0.49,-2.2 1.4,-2.38l1.15 -0.16c0.55,0 0.96,-0.35 0.96,-0.84 0,-0.34 -0.19,-0.95 -1.4,-0.95l-4.06 0.14 -0.8 0.04 -0.62 -0.02 -5.04 -0.16c-1.19,0 -1.38,0.61 -1.38,0.95 0,0.49 0.37,0.84 0.95,0.84 0.5,0 1.26,0.11 1.58,0.16 1.31,0.3 1.63,0.74 1.75,2.38l0.07 3.03c0,0 0.07,7.72 0.07,7.75l0 22.99c-0.02,0.23 -0.05,0.47 -0.06,0.64 0,0.94 0.43,1.25 0.7,1.35 0.52,0.16 1.12,-0.1 1.56,-0.87 -0.04,0.04 0.59,-0.79 0.59,-0.79l4.09 -5.3c5.35,-6.96 11.27,-14.17 19.1,-23.35l0.01 14.12c0,4.88 0,8.74 -0.23,10.79 -0.17,1.62 -0.45,2.19 -0.99,2.28 -0.79,0.21 -1.18,0.24 -1.38,0.25 -0.65,0 -0.98,0.38 -0.98,0.85 0,0.35 0.2,0.92 1.34,0.92l4 -0.15 0.93 -0.03 0.57 0.03 5.56 0.15c1.29,0 1.33,-0.79 1.33,-0.92 0,-0.55 -0.34,-0.86 -0.89,-0.86z"/>
    <path class="fil0" d="M426.03 183.55l-0.79 0.08 -0.77 0.18c-0.69,0.07 -1.85,0.2 -3.67,0.2l-19.8 0c-0.53,0 -2.55,-0.03 -4.05,-0.23 -0.82,-0.1 -1.31,-0.26 -1.68,-0.41l-0.7 -0.17c-0.54,0 -0.74,0.54 -0.99,1.15l-0.08 0.18 -0.37 1.67c-0.52,2.42 -0.78,3.64 -0.78,3.98 0,0.58 0.47,0.95 0.9,0.95 0.54,0 0.89,-0.28 1.06,-0.86l-0.05 0.11 0.16 -0.39c0.13,-0.25 0.26,-0.58 0.67,-1.2 0.58,-0.87 1.43,-1.27 4.85,-1.35 0,0 5.28,-0.11 7.03,-0.13l0 20.75c0,4.94 0,8.84 -0.24,10.91 -0.17,1.56 -0.44,2.15 -1.12,2.3 -0.57,0.12 -1.07,0.2 -1.43,0.2 -0.63,0 -0.97,0.44 -0.97,0.91 0,0.44 0.25,0.95 1.38,0.95l4.57 -0.14 0.87 -0.04 0.65 0.03 5.84 0.15c1.29,0 1.36,-0.72 1.36,-0.95 0,-0.58 -0.36,-0.99 -0.94,-0.99 -0.42,0 -1.59,-0.1 -2.28,-0.22 -1.16,-0.15 -1.41,-0.64 -1.6,-2.2 -0.22,-2.07 -0.22,-5.97 -0.22,-10.91l-0.03 -20.75c0.94,0.01 6,0.12 6,0.12 5.56,0.15 5.72,1.56 5.8,2.29l0.06 0.56c0.05,0.45 0.14,1.35 0.96,1.35 0.5,0 1.02,-0.4 1.02,-1.14l0.06 -1.75 0.12 -4.07c0,-0.29 0.01,-1.12 -0.8,-1.12z"/>
    <path class="fil0" d="M456.42 215.37c-0.83,0 -0.99,0.8 -1.06,1.24 -0.3,1.98 -0.98,2.62 -2.07,3.1 -1.25,0.48 -3.71,0.48 -5.03,0.51 -5.12,0 -5.63,-0.66 -5.73,-3.54 -0.04,-0.34 -0.04,-1.21 -0.04,-2.29 0,-1.27 0,-2.84 0.02,-4.09l0.02 -2.24 0 -4.06c1.23,0 6.36,0.04 7.66,0.24 2,0.22 2.15,0.8 2.23,1.11 0.23,0.62 0.23,1.12 0.23,1.56 0,0.68 0.45,1.04 0.89,1.04 0.64,0 1.04,-0.61 1.04,-1.53 0,-0.31 0.1,-2.21 0.23,-3.22 0.07,-1.06 0.22,-1.77 0.33,-2.24l0.06 -0.6c0,-0.67 -0.39,-0.98 -0.81,-0.98 -0.38,0 -0.63,0.29 -0.96,0.62l-0.22 0.19c-0.33,0.36 -0.91,0.43 -2.11,0.54l-0.1 0.04c-0.84,0.11 -4.9,0.11 -8.47,0.11l-0.02 -13.76c1.3,0 6.51,0.06 7.27,0.17 2.82,0.32 3.1,0.67 3.32,1.21 0.19,0.48 0.25,1.22 0.26,1.58 -0.01,1.11 0.75,1.2 0.95,1.2 0.56,0 0.89,-0.49 1.03,-0.95 0.07,-0.4 0.16,-1.3 0.22,-2.41l0.09 -0.99c0.05,-0.85 0.18,-1.36 0.29,-1.79l0.1 -0.65c0,-0.75 -0.39,-1.03 -0.76,-1.03l-0.65 0.17 -0.2 0.09c-0.01,0 -0.21,0.02 -0.21,0.02l-2.08 0.27c-0.67,0.04 -4.63,0.04 -11.81,0l-0.7 0 -0.76 -0.03 -5.31 -0.1c-1.13,0 -1.35,0.55 -1.35,0.97 -0.03,0.49 0.47,0.96 0.93,0.96l1.71 0.11c1.36,0.19 1.58,0.66 1.7,2.31 0.13,1.61 0.13,3 0.13,10.89l0 8.94c0,4.75 0,8.84 -0.32,10.88l-0.03 0.18c-0.21,1.45 -0.34,1.96 -0.91,2.04 0.05,0 -0.59,0.11 -0.59,0.11l-0.89 0.12c-0.64,0 -0.97,0.5 -0.97,0.99 0,0.25 0.13,0.95 1.38,0.95l3.09 -0.14 2.2 -0.04 5.66 0.15 7.84 0.14c2.04,0 2.99,0 3.45,-1.72 0.32,-1.13 0.73,-4.63 0.73,-5.01 0,-1.21 -0.64,-1.34 -0.9,-1.34z"/>
    <path class="fil0" d="M497.16 221.51c-0.29,0 -1.07,-0.03 -1.87,-0.28 -0.98,-0.31 -2.29,-1.17 -3.97,-5.3 -1.89,-4.75 -5.7,-14.65 -8.49,-21.84l-3.2 -8.33c-0.55,-1.49 -0.85,-2.13 -1.59,-2.13 -0.71,0 -0.97,0.67 -1.62,2.24 0,0.02 -11.32,31.15 -11.32,31.15 -0.95,2.59 -1.84,4.11 -3.82,4.37l-1.33 0.14c-0.75,0 -1.04,0.45 -1.04,0.85 0,0.61 0.51,0.93 1.49,0.93l4.6 -0.16 1.08 -0.01 1.26 0.05 2.67 0.12c1.22,0 1.26,-0.81 1.26,-0.95 0,-0.38 -0.18,-0.83 -1.01,-0.83l-0.48 0c-0.56,-0.02 -1.34,-0.26 -1.34,-0.96 0,-0.85 0.21,-1.98 0.61,-3.19l3.91 -11.37c0,0 3.52,-10.79 4.28,-13.09 0.8,2.3 4.6,13.09 4.6,13.09l0.9 2.46 4.68 12.28c0.03,0.17 0.06,0.32 0.06,0.42 0,0.16 -0.03,0.22 -0.03,0.22 -0.41,0.14 -0.67,0.48 -0.67,0.88 0,0.79 0.79,0.83 1.74,0.88l0.26 0.04c2.23,0.06 5.04,0.11 7.91,0.11 1.33,0 1.48,-0.68 1.48,-0.94 0.01,-0.21 -0.05,-0.85 -1.01,-0.85z"/>
    <path class="fil0" d="M514.98 220.71c-0.98,0 -2.99,-0.14 -4.19,-0.68 -1.21,-0.59 -1.21,-0.99 -1.33,-3.29l0 -0.13c-0.07,-0.78 -0.07,-7.06 -0.07,-10.8l0 -2.51c0,-0.1 0,-0.15 0,-0.15 0.03,0 0.11,-0.03 0.11,-0.03l1.66 -0.01c2.14,-0.1 3.53,-0.15 5.72,1.35 4.15,2.88 4.6,7.73 4.6,9.71 0,6.34 -5.83,6.54 -6.5,6.54zm-2.72 -20.05l0 0c-1.8,0 -2.62,-0.11 -2.87,-0.14l0.05 -11.95c0.06,-1.78 0.48,-2.15 1.39,-2.32l1.14 -0.17c0.63,0 0.89,-0.43 0.89,-0.86 0,-0.42 -0.19,-0.96 -1.29,-0.96l-4.08 0.17 -0.81 0.05 -0.89 -0.05 -4.18 -0.17c-1.21,0 -1.38,0.63 -1.38,0.96 0,0.5 0.42,0.86 0.96,0.86 0.34,0 0.96,0.06 1.36,0.22 1.08,0.2 1.57,0.97 1.63,2.27 0,0.03 0.13,10.8 0.13,10.8l0 8.83c0,4.88 0,8.74 -0.3,10.77 -0.19,1.65 -0.43,2.2 -0.97,2.3 -0.79,0.2 -1.2,0.24 -1.41,0.24 -0.66,0 -0.97,0.4 -0.97,0.85 0,0.35 0.18,0.94 1.33,0.94l4.17 -0.15 0.79 -0.05 1.92 0.09 4.73 0.2c8.76,0 13.33,-5.76 13.33,-11.45 0,-10.18 -10.29,-11.28 -14.67,-11.28z"/>
    <path class="fil0" d="M575.01 221.33c-0.37,0.01 -1.51,-0.12 -2.2,-0.21 -1.21,-0.2 -1.29,-0.65 -1.46,-2.21 -0.28,-2.25 -0.31,-6.78 -0.31,-10.89l-0.02 -9.2c0,-7.66 0,-9.08 0.1,-10.65 0.11,-1.79 0.42,-2.11 1.38,-2.31l1.19 -0.1c0.54,0 1.03,-0.47 1.03,-0.99 0,-0.42 -0.23,-0.96 -1.46,-0.96l-4.19 0.13 -0.99 0.01 -0.65 -0.01 -5.31 -0.11c-1.13,0 -1.35,0.54 -1.35,0.97 0,0.44 0.37,0.96 0.92,0.96l1.73 0.11c1.33,0.17 1.51,0.61 1.62,2.3l0.01 0.19c0.05,1.52 0.1,3.26 0.1,10.83l0 0.81 -21.36 0c-0.02,-0.31 0,-1.03 0,-1.11 -0.02,-7.55 -0.02,-9.17 0.06,-10.72 0.1,-1.76 0.37,-2.09 1.39,-2.3l1.2 -0.11c0.49,0 0.94,-0.47 0.94,-0.96 0,-0.43 -0.21,-0.97 -1.36,-0.97l-4.38 0.11 -0.82 0.01 -0.76 -0.01 -5.25 -0.11c-0.88,0 -1.36,0.33 -1.36,0.97 0,0.49 0.46,0.96 0.95,0.96l1.69 0.11c1.36,0.19 1.59,0.63 1.71,2.3 0.11,1.6 0.11,3.02 0.11,10.89l0 8.96c0,4.74 0,8.83 -0.29,10.89l-0.03 0.13c-0.22,1.47 -0.33,1.96 -0.92,2.12 -0.41,0.07 -1.03,0.18 -1.47,0.18 -0.64,0 -0.96,0.51 -0.96,0.99 -0.02,0.35 0.17,0.96 1.36,0.96l4.31 -0.16 0.93 -0.04 0.58 0.01 5.94 0.17c1.27,0 1.37,-0.72 1.37,-0.94 0,-0.5 -0.32,-0.99 -0.94,-0.99 -0.43,0 -1.52,-0.11 -2.32,-0.22 -1.13,-0.17 -1.29,-0.68 -1.47,-2.21 -0.21,-2.06 -0.21,-5.91 -0.21,-10.78l0 -4.83 21.36 -0.03 0 4.83c0.02,4.85 0.02,8.7 -0.2,10.76 -0.2,1.58 -0.38,2.11 -1.01,2.28 -0.61,0.13 -1.1,0.2 -1.44,0.2 -0.6,0 -0.94,0.48 -0.94,0.99 0,0.44 0.22,0.92 1.35,0.92l4.39 -0.14 0.81 -0.03 0.69 0.02 5.81 0.15c1.38,0 1.45,-0.78 1.45,-0.92 0,-0.5 -0.35,-1 -1.05,-1z"/>
    <path class="fil0" d="M638.41 186.67c1.41,0 4.76,0.64 5.17,0.82 0,0 0.03,0 0.06,0 0,0 0.03,0.03 0.03,0.06 0,0 0.06,14.16 0.06,15.49 -0.56,1.09 -0.85,1.16 -2.74,1.16 -5.42,0.01 -9.36,-4.33 -9.36,-10.33 0.06,-6.26 4.27,-7.2 6.78,-7.2zm-36.06 19.27l0 0 -9.7 0c0.69,-1.94 4.2,-11.93 4.69,-13.35 0.54,1.39 4.25,11.38 5.01,13.35zm49.49 -21.73l0 0 -5.05 0.16 -0.64 0.04 -1.92 -0.15c-1.61,-0.11 -3.58,-0.28 -4.55,-0.28 -6.21,0 -13.46,2.99 -13.43,11.47 0,3.92 2.91,8.03 7,9.93 -2.51,4.46 -5.47,9.01 -8.14,12.53 -1.99,2.03 -3.9,3.16 -5.68,3.36l-0.06 0 -0.06 0c-0.16,0.02 -0.25,0.07 -0.39,0.07 -0.09,0 -0.17,-0.02 -0.32,-0.02 -0.44,0 -1.17,-0.05 -1.89,-0.27 -0.9,-0.28 -2.25,-0.71 -4.17,-5.23l-7.48 -18.38c-2.48,-6.11 -4.64,-11.38 -5.1,-12.4l-0.29 -0.66c-0.38,-0.83 -0.68,-1.52 -1.47,-1.5 -0.77,0 -1.13,0.64 -1.75,2.28l-12.33 31.74c-1.06,2.66 -1.95,4.07 -3.97,4.31 0,0.02 -1.5,0.12 -1.5,0.12 -0.53,0 -1.03,0.47 -1.02,1 0,0.4 0.26,0.92 1.57,0.91l4.17 -0.14 1.16 -0.02 1.55 0.06 3.14 0.11c1.23,-0.01 1.32,-0.74 1.32,-0.92 0,-0.51 -0.27,-1.01 -1.09,-1.01l-0.47 0c-0.46,0 -1.25,-0.09 -1.25,-0.81 0,-0.8 0.28,-1.96 0.74,-3.22l2.98 -8.11c0,0.02 0.04,-0.1 0.04,-0.1 0,0 12.09,0.03 12.1,0.03 0,0.01 4.67,11.6 4.67,11.6 0.06,0.13 0.09,0.21 0.09,0.31 0,0.03 0,0.1 -0.03,0.14 -0.06,0.11 -0.15,0.18 -0.21,0.19 -0.06,0.02 -0.16,0.08 -0.16,0.08 -0.18,0.1 -0.55,0.25 -0.55,0.78 0,0.78 0.86,0.83 2,0.88l0.35 0.04c2.38,0.06 5.34,0.11 8.33,0.11 0.08,0 0.14,-0.05 0.2,-0.05 0.13,0.05 0.28,0.05 0.38,0.05l3.14 0c2.73,0 4.17,-0.27 5.6,-1.03l0.05 -0.01 0.01 -0.02c2.34,-1.67 4.31,-4.39 6.77,-8.2 0,0 3.44,-5.58 4.18,-6.82 0.5,0 4.96,-0.07 5.32,-0.1 0,0.24 0,1.08 0,1.08 0,4.86 0,8.74 -0.25,10.8 -0.19,1.63 -0.49,2.11 -1.5,2.23 -0.76,0.16 -1.77,0.26 -2.19,0.26 -0.65,0 -0.96,0.42 -0.96,0.86 0,0.43 0.35,0.93 1.38,0.93l5.58 -0.16 0.59 -0.02 0.2 0 4.5 0.15c1.15,0.02 1.32,-0.56 1.32,-0.9 0,-0.44 -0.25,-0.86 -0.92,-0.86 -0.4,0 -0.94,-0.11 -1.34,-0.22 -0.65,-0.09 -0.84,-0.77 -1.11,-2.33 -0.22,-2 -0.22,-5.84 -0.22,-10.75l-0.01 -8.83c0,-7.77 -0.01,-9.18 0.11,-10.76 0.06,-1.63 0.39,-2.08 1.72,-2.34 0.37,-0.12 1.16,-0.19 1.54,-0.19 0.95,0 0.97,-0.71 0.97,-0.85 0,-0.36 -0.16,-0.95 -1.3,-0.95z"/>
    <path class="fil0" d="M702.11 183.78l-0.64 0.2 -0.26 0.12c0.02,0 -1.4,0.11 -1.4,0.11l-0.67 0.04c-0.61,0.06 -10.96,0.13 -12.23,0.13l-0.64 -0.03 -5.04 -0.14c-1.2,0 -1.37,0.61 -1.37,0.95 0,0.49 0.4,0.85 0.96,0.85 0.5,0 1.26,0.05 1.55,0.13 1.35,0.31 1.57,0.78 1.71,1.82 0.12,0.86 0.17,2.84 0.17,11.32l0.02 8.82c0,7.81 -0.17,10.49 -0.34,11.36 -0.28,1.46 -0.54,1.59 -0.99,1.73 -0.44,0.16 -0.99,0.21 -1.34,0.21 -0.66,0 -0.95,0.42 -0.95,0.87 0,0.36 0.17,0.92 1.31,0.92l3.96 -0.14 0.75 -0.01 0.68 0 5.54 0.15c1.24,0 1.31,-0.77 1.31,-0.92 0,-0.29 -0.12,-0.87 -0.96,-0.87 -0.37,0 -1.44,-0.11 -2.13,-0.23 -0.71,-0.05 -0.97,-0.33 -1.14,-1.73 -0.13,-0.63 -0.13,-1.85 -0.13,-3.27l0.04 -8.07 -0.02 -20.79c1.68,0.07 6.2,0.18 6.2,0.18 2.72,0 3.77,0.8 3.98,1.29 0.28,0.6 0.45,1.43 0.45,1.68 0.01,0.88 0.5,1.06 0.92,1.06 0.67,0 0.8,-0.63 0.86,-0.88 0.14,-0.68 0.24,-2.89 0.25,-3.42 -0.01,0.05 0.29,-1.6 0.29,-1.6l0.13 -0.78c0,-0.78 -0.46,-1.06 -0.83,-1.06z"/>
    <path class="fil0" d="M735.03 186.77c-0.96,-0.84 -3.44,-3.03 -10.39,-3.03l-4.99 0.09 -2.47 0.05 -0.97 -0.01 -5.1 -0.13c-0.91,0.04 -1.37,0.36 -1.37,0.99 0,0.47 0.46,0.95 0.94,0.95l1.74 0.13c1.35,0.17 1.57,0.64 1.68,2.3 0.12,1.6 0.12,3 0.12,10.88l0 8.93c0.01,4.75 0.01,8.84 -0.28,10.91l-0.04 0.14c-0.22,1.47 -0.37,1.95 -0.92,2.1 -0.42,0.09 -1.06,0.2 -1.5,0.2 -0.64,0 -0.96,0.51 -0.96,0.99 0,0.36 0.19,0.93 1.4,0.93l4.51 -0.15 0.65 -0.03 0.58 0.03 5.97 0.15c1.28,0 1.41,-0.72 1.41,-0.93 0,-0.48 -0.36,-0.99 -0.97,-0.99 -0.46,0 -1.55,-0.11 -2.24,-0.25 -1.2,-0.13 -1.45,-0.67 -1.66,-2.19 -0.23,-2.07 -0.23,-5.97 -0.23,-10.91l0 -20.63c0,-0.32 0.06,-0.41 0.06,-0.44 0.61,-0.14 1.94,-0.35 2.75,-0.35l0.33 0c1.29,-0.02 4.01,-0.05 6.36,2.28 2.83,2.77 2.83,6.21 2.84,7.33 0,4.34 -3.94,7.62 -9.18,7.62 -0.75,0 -1.92,0 -1.92,1.06 0,0.6 0.61,1.04 1.07,1.05 0.27,0.01 0.7,0.06 1.52,0.06 8.42,-0.01 14.07,-5.1 14.07,-12.66 0,-2.93 -1.52,-5.34 -2.81,-6.47z"/>
    <path class="fil0" d="M722.27 205.84c-0.02,0 -0.08,0 -0.1,-0.01l0.1 0.01z"/>
    <path class="fil0" d="M780.97 184.55c-0.19,-0.29 -0.56,-0.4 -1.24,-0.4l-3.15 0.15 -0.7 0.05 -1.18 -0.09 -3.73 -0.11c-0.55,0 -1.55,0 -1.71,0.88l0 0.05 -0.02 0.02c0,0.2 0.08,0.87 1.08,0.87 0.56,-0.01 1.22,0 1.72,0.21 0.12,0.07 0.24,0.18 0.24,0.53 -0.07,0.21 -0.67,2.23 -0.67,2.23 -1.25,3.73 -6.14,16.64 -9.11,24.14 -0.99,-2.03 -10.77,-22.76 -10.77,-22.76 -0.8,-1.68 -1.2,-3.16 -1.2,-3.61 0,-0.26 0,-0.41 0.38,-0.57 0.23,-0.1 1.01,-0.17 1.6,-0.17 0.93,0 1.07,-0.56 1.07,-0.89 0,-0.93 -1.31,-0.93 -1.91,-0.93l-3.7 0.15 -0.96 0.05 -1.24 -0.05 -4.63 -0.14c-0.72,0 -1.84,-0.01 -1.84,0.92 0,0.53 0.42,0.89 0.95,0.89 0.3,0 1.04,0 1.75,0.21 1.51,0.4 1.88,0.83 3.27,3.54 0,0 14.59,28.64 14.79,29.06 -1.4,3.67 -2.44,5.34 -4.32,5.34 -1.57,0 -2.87,-1.97 -2.87,-4.4 0,-0.75 0,-1.51 -0.87,-1.51 -0.33,0 -0.73,0.17 -0.91,0.88 -0.25,1.81 -0.38,4.81 -0.3,6.41 0,0.81 0.33,1.32 1.04,1.73 1.03,0.55 2.78,0.96 3.74,0.96 2.82,0 5.38,-2.58 7.3,-7.24l12.27 -30.03c1.38,-3.49 2.19,-4.08 2.7,-4.47 0.82,-0.49 1.83,-0.48 2.18,-0.49 0.92,0 1.08,-0.52 1.12,-0.88 0.01,-0.19 -0.04,-0.38 -0.17,-0.53z"/>
    <path class="fil0" d="M821.47 221.35c-0.44,0 -1.43,-0.08 -2.21,-0.23 -0.99,-0.15 -1.29,-0.61 -1.51,-2.27 -0.22,-2.05 -0.22,-5.9 -0.22,-10.79l0 -8.82c-0.03,-7.78 -0.03,-9.18 0.1,-10.76 0.05,-1.84 0.48,-2.21 1.38,-2.37 0.02,0 1.16,-0.18 1.16,-0.18 0.64,0 0.91,-0.43 0.91,-0.84 0,-0.43 -0.23,-0.97 -1.32,-0.95 -1.49,0 -2.32,0 -4.91,0.17l-26.03 0.04 -0.61 -0.04 -5.05 -0.16c-1.21,0 -1.39,0.62 -1.39,0.95 0,0.49 0.39,0.86 0.95,0.86 0.53,0 1.27,0.06 1.59,0.13 1.29,0.32 1.68,0.76 1.76,2.39 0.11,1.6 0.11,2.99 0.13,10.79l0 8.79c0,4.89 0,8.74 -0.28,10.79 -0.2,1.64 -0.44,2.2 -0.98,2.29 -0.63,0.13 -1.13,0.23 -1.4,0.23 -0.68,0 -0.98,0.43 -0.98,0.86 0,0.34 0.16,0.93 1.33,0.93l4.21 -0.15 0.73 -0.04 0.57 0.02 5.6 0.16c0.99,0 1.37,-0.52 1.34,-0.94 0,-0.41 -0.31,-0.84 -0.95,-0.84 -0.39,0 -1.41,-0.1 -2.16,-0.23 -1,-0.14 -1.33,-0.61 -1.53,-2.28 -0.23,-2.06 -0.23,-5.91 -0.24,-10.8l0 -20.75 20.74 0 0 20.75c0,4.89 0.01,8.74 -0.23,10.79 -0.19,1.64 -0.44,2.2 -0.97,2.27 -0.63,0.15 -1.11,0.23 -1.41,0.23 -0.65,0.01 -0.95,0.43 -0.95,0.86 0,0.35 0.16,0.94 1.31,0.94l4.02 -0.16 0.92 -0.02 0.57 0.02 5.57 0.16c0.99,0 1.34,-0.52 1.34,-0.94 0,-0.41 -0.22,-0.86 -0.9,-0.86z"/>
    <path class="fil0" d="M868.24 221.34c-0.43,0 -1.49,-0.15 -2.15,-0.22 -1.01,-0.15 -1.32,-0.64 -1.54,-2.3 -0.22,-2.06 -0.22,-5.9 -0.22,-10.79l0 -8.81c-0.02,-7.78 -0.02,-9.19 0.11,-10.78 0.04,-1.81 0.48,-2.19 1.38,-2.36 0.03,0 1.15,-0.16 1.15,-0.16 0.66,0 0.9,-0.45 0.9,-0.84 0,-0.35 -0.15,-0.97 -1.32,-0.98 -1.47,0.01 -2.34,0.01 -4.9,0.21l-26.04 0 -0.62 -0.05 -5.02 -0.14c-1.22,0 -1.39,0.63 -1.41,0.97 0,0.5 0.41,0.84 0.96,0.84 0.52,0 1.27,0.08 1.57,0.13 1.35,0.33 1.67,0.79 1.78,2.41 0.14,1.59 0.14,2.99 0.14,10.75l0 8.81c0,4.89 0,8.73 -0.29,10.79 -0.2,1.66 -0.43,2.2 -1.01,2.3 -0.78,0.2 -1.18,0.23 -1.39,0.23 -0.66,0 -0.93,0.42 -0.93,0.86 0,0.35 0.14,0.94 1.28,0.94l4.19 -0.16 0.75 -0.04 0.57 0.02 5.58 0.18c1.02,-0.01 1.38,-0.52 1.38,-0.95 0,-0.44 -0.29,-0.85 -0.93,-0.86 -0.49,0 -1.5,-0.13 -2.21,-0.22 -0.98,-0.15 -1.31,-0.63 -1.49,-2.27 -0.24,-2.07 -0.26,-5.93 -0.26,-10.82l0 -20.72 20.75 -0.02 0.02 20.74c0,4.89 0,8.73 -0.23,10.79 -0.21,1.62 -0.45,2.2 -1.02,2.3 -0.79,0.17 -1.17,0.22 -1.38,0.22 -0.68,0 -0.96,0.42 -0.96,0.86 0,0.35 0.15,0.94 1.31,0.94l4.03 -0.17 0.91 -0.02 0.55 0.02 5.61 0.16c1.24,0.01 1.29,-0.8 1.29,-0.93 0,-0.43 -0.21,-0.86 -0.89,-0.86z"/>
    <path class="fil0" d="M895.27 205.81l-9.69 0c0.71,-1.93 4.23,-11.95 4.71,-13.35 0.5,1.34 4.25,11.38 4.98,13.35zm-0.2 -1.53l0 0c0,0 0.18,1.11 0.25,1.53 -0.07,-0.49 -0.25,-1.53 -0.25,-1.53zm16.48 16.89l0 0c-0.48,0 -1.2,-0.01 -1.94,-0.25 -0.88,-0.28 -2.21,-0.73 -4.11,-5.25l-7.51 -18.31c-2.49,-6.14 -4.64,-11.43 -5.1,-12.47l-0.29 -0.64c-0.36,-0.79 -0.67,-1.52 -1.46,-1.52 -0.77,0 -1.09,0.67 -1.73,2.31l-12.37 31.72c-1.04,2.68 -1.97,4.08 -3.95,4.32 -0.04,-0.01 -1.52,0.11 -1.52,0.11 -0.53,0.02 -0.99,0.46 -0.99,0.99 0,0.44 0.27,0.95 1.56,0.96l4.18 -0.17 1.12 -0.02 1.56 0.09 3.16 0.09c1.24,0 1.3,-0.75 1.3,-0.95 0,-0.48 -0.29,-0.99 -1.05,-0.99l-0.49 0c-0.48,0 -1.26,-0.07 -1.26,-0.8 0,-0.83 0.26,-1.97 0.77,-3.22l2.98 -8.14c-0.05,0.04 0.03,-0.05 0.03,-0.05l12.06 0.02c0.03,0 4.71,11.57 4.71,11.57 0.05,0.14 0.08,0.24 0.09,0.33 -0.01,0.02 0,0.07 -0.04,0.12 -0.05,0.14 -0.15,0.19 -0.22,0.21 -0.04,0.04 -0.15,0.06 -0.15,0.06 -0.17,0.08 -0.54,0.27 -0.54,0.81 0,0.78 0.86,0.82 1.98,0.87l0.37 0c2.36,0.11 5.31,0.13 8.32,0.14 1.5,-0.01 1.72,-0.6 1.72,-0.94 0,-0.57 -0.5,-1 -1.19,-1z"/>
   </g>
   <g>
    <path class="fil0" d="M84.14 154.26l6.68 -1.17 0.07 41.04 -1.86 0.02 -1.47 -31.94 -2.45 0.45 -0.24 38.73 -7.88 3.48 0.49 -47.99c0,0 -5.77,-7.06 -3.93,-11.71 0.78,-2.73 5.14,-4.5 5.14,-4.5l-0.52 -7.35c0,0 -0.5,-4.42 5.54,-6.21 0,0 0.64,-6.32 0.91,-8.1 0.29,-1.8 1.83,-4.45 5.37,-5.35 0,0 0.9,-21.36 9.64,-32.35 8.72,-10.95 21.56,-19.68 21.56,-19.68l-1.49 -21.14 10.81 -5.63 0.82 -21.46 2.71 0.19 1.43 25.61 -7.82 6.86 0.31 21.66c0,0 -9.58,2.68 -17.88,11.2 -8.9,9.16 -16.41,24.71 -9.13,39.73 0,0 -6.99,0.73 -9.69,3.09 -2.68,2.37 -1.93,3.82 0.17,3.37 2.07,-0.46 32.35,-6.44 60.85,-2.46l-0.59 2.12c0,0 -34.79,-2.61 -64.94,9.45 0,0 -1.67,0.64 -1.64,2.34 0.04,1.69 0.06,3.35 2.35,2.92 2.31,-0.47 31.23,-7.47 59.12,-3.48l0.28 2.43c0,0 -31.4,-2.34 -56.12,5.51 -11.88,2.98 -10.96,5.24 -10.96,5.24 0,0 0.83,1.55 4.36,5.08z"/>
    <polygon class="fil0" points="94.53,152.49 105.99,149.41 104.15,191.69 101.93,191.62 100.19,159.86 94.86,160.55 "/>
    <polygon class="fil0" points="108.37,148.71 110.19,158.57 115.39,157.53 116.94,189.19 119.22,189.05 120.78,148.33 "/>
    <polygon class="fil0" points="123.59,148.26 138.84,147.82 137.41,188.63 135.2,188.69 133.45,157.35 129.01,157.65 "/>
    <polygon class="fil0" points="157.8,218.22 157.41,220.45 79.72,212.66 57.01,221.62 57.01,229.37 80.93,222.4 163.47,233.46 163.51,235.76 82.89,228.14 29.88,248.2 28.26,238.03 49.75,231.62 52.25,217.61 79.45,208.25 "/>
    <polygon class="fil0" points="90.42,231.79 100.94,232.8 101.06,247.77 90.65,246.69 "/>
    <polygon class="fil0" points="108.75,234.04 117.56,235.29 117.89,249.47 109.19,248.48 "/>
    <polygon class="fil0" points="124.57,235.99 132.55,237.06 132.69,250.92 124.9,250.17 "/>
   </g>
  </g>
 </g>
</svg>
