<?xml version="1.0" encoding="UTF-8"?>
<!DOCTYPE svg PUBLIC "-//W3C//DTD SVG 1.1//EN" "http://www.w3.org/Graphics/SVG/1.1/DTD/svg11.dtd">
<!-- Creator: CorelDRAW 2018 (64-Bit) -->
<svg xmlns="http://www.w3.org/2000/svg" xml:space="preserve" width="827px" height="472px" version="1.1" style="shape-rendering:geometricPrecision; text-rendering:geometricPrecision; image-rendering:optimizeQuality; fill-rule:evenodd; clip-rule:evenodd"
viewBox="0 0 827 472.57"
 xmlns:xlink="http://www.w3.org/1999/xlink">
 <defs>
  <style type="text/css">
   <![CDATA[
    .fil0 {fill:#970c20}
   ]]>
  </style>
 </defs>
 <g id="Слой_x0020_1">
  <metadata id="CorelCorpID_0Corel-Layer"/>
  <path class="fil0" d="M396.59 430.19l41.85 0c0,0 12.65,-1.39 19.1,-8.35 5.94,-6.38 5.75,-18.38 5.75,-18.38 0,0 -0.82,-56.16 25.25,-64.42 25.69,-8.15 58.68,54.27 93.65,78.27 26.44,18.16 46.54,14.18 46.54,14.18l93.5 -1.3c0,0 48.91,-3.01 25.72,-41.47 -1.9,-3.15 -13.51,-28.45 -69.52,-80.44 -58.63,-54.42 -50.78,-45.62 19.85,-139.75 43.01,-57.32 60.2,-92.32 54.83,-107.31 -5.12,-14.28 -36.75,-10.5 -36.75,-10.5l-105.28 0.65c0,0 -7.81,-1.06 -13.6,2.4 -5.65,3.39 -9.29,11.3 -9.29,11.3 0,0 -16.66,44.36 -38.89,82.09 -46.88,79.6 -65.62,83.8 -73.28,78.86 -17.82,-11.52 -13.37,-46.28 -13.37,-70.98 0,-77.14 11.7,-109.3 -22.79,-117.63 -11.44,-2.77 -19.86,-4.59 -49.13,-4.89 -37.56,-0.39 -69.36,0.12 -87.36,8.94 -11.98,5.86 -21.22,18.93 -15.59,19.68 6.96,0.93 22.72,4.25 31.07,15.63 10.79,14.67 10.41,47.64 10.41,47.64 0,0 6.2,90.81 -14.48,102.09 -14.19,7.74 -33.65,-8.06 -75.45,-80.28 -21.41,-36.99 -37.58,-77.88 -37.58,-77.88 0,0 -3.12,-7.64 -8.68,-11.73 -6.75,-4.95 -16.18,-6.53 -16.18,-6.53l-100.04 0.66c0,0 -15.02,0.41 -20.53,6.94 -4.9,5.81 -0.39,17.83 -0.39,17.83 0,0 78.32,183.23 167.01,275.58 81.31,84.66 173.65,79.1 173.65,79.1l0 0z"/>
 </g>
</svg>
