<?xml version="1.0" encoding="UTF-8"?>
<!DOCTYPE svg PUBLIC "-//W3C//DTD SVG 1.1//EN" "http://www.w3.org/Graphics/SVG/1.1/DTD/svg11.dtd">
<!-- Creator: CorelDRAW 2018 (64-Bit) -->
<svg xmlns="http://www.w3.org/2000/svg" xml:space="preserve" width="709px" height="709px" version="1.1" style="shape-rendering:geometricPrecision; text-rendering:geometricPrecision; image-rendering:optimizeQuality; fill-rule:evenodd; clip-rule:evenodd"
viewBox="0 0 750 709"
 xmlns:xlink="http://www.w3.org/1999/xlink">
 <defs>
  <style type="text/css">
   <![CDATA[
    .fil0 {fill:#970c20;fill-rule:nonzero}
   ]]>
  </style>
 </defs>
 <g id="Слой_x0020_1">
  <metadata id="CorelCorpID_0Corel-Layer"/>
  <path class="fil0" d="M555.45 144.83c-35.39,-32.77 -88.19,-54.86 -143.95,-55.97l-1.32 205.66 145.27 -149.69z"/>
  <path class="fil0" d="M372.83 87.47c-145.62,0 -253.16,118.04 -253.16,263.64 0,145.6 118.02,263.63 263.63,263.63 102.1,0 197.05,-60.28 232.02,-138.07l-237.2 -125.56 0 -263.5c-1.77,-0.03 -3.52,-0.14 -5.29,-0.14z"/>
  <polygon class="fil0" points="508.74,239.32 470.57,360.96 492.58,372.76 546.72,200.3 "/>
  <polygon class="fil0" points="459.52,289.91 442.02,345.67 464.04,357.46 497.49,250.88 "/>
  <path class="fil0" d="M615.9 216.66l-59.69 190.19 22.02 11.79 53.42 -170.15c-4.51,-11.03 -9.79,-21.67 -15.75,-31.83z"/>
  <path class="fil0" d="M635.82 259.47l-51.05 162.66 22.02 11.8 40.32 -128.46c-2.21,-15.76 -6.04,-31.17 -11.29,-46z"/>
  <path class="fil0" d="M649.34 336.16c0,-4.14 -0.13,-8.27 -0.37,-12.36l-35.66 113.62 12.94 6.93c16.51,-32.03 23.09,-69.66 23.09,-108.19z"/>
  <path class="fil0" d="M578.39 167.76l-20.42 20.98 -58.86 187.52 22.03 11.79 66.17 -210.79c-2.92,-3.25 -5.87,-6.44 -8.92,-9.5z"/>
  <polygon class="fil0" points="417.84,332.72 435.49,342.17 448.27,301.46 "/>
  <path class="fil0" d="M592.89 183.73l-65.23 207.82 22.03 11.79 61.18 -194.91c-5.54,-8.65 -11.53,-16.94 -17.98,-24.7z"/>
 </g>
</svg>
