<?xml version="1.0" encoding="UTF-8"?>
<!DOCTYPE svg PUBLIC "-//W3C//DTD SVG 1.1//EN" "http://www.w3.org/Graphics/SVG/1.1/DTD/svg11.dtd">
<!-- Creator: CorelDRAW 2018 (64-Bit) -->
<svg xmlns="http://www.w3.org/2000/svg" xml:space="preserve" width="709px" height="709px" version="1.1" style="shape-rendering:geometricPrecision; text-rendering:geometricPrecision; image-rendering:optimizeQuality; fill-rule:evenodd; clip-rule:evenodd"
viewBox="0 0 709 709"
 xmlns:xlink="http://www.w3.org/1999/xlink">
 <defs>
  <style type="text/css">
   <![CDATA[
    .fil0 {fill:#970c20;fill-rule:nonzero}
   ]]>
  </style>
 </defs>
 <g id="Слой_x0020_1">
  <metadata id="CorelCorpID_0Corel-Layer"/>
  <path class="fil0" d="M520.27 212.11l-269.31 0 0 -21.9 269.31 0 0 21.9zm0 76.65l-269.31 0 0 -21.91 269.31 0 0 21.91zm0 76.66l-269.31 0 0 -21.9 269.31 0 0 21.9zm-320.44 -291.4c-17.54,0 -31.82,14.26 -31.82,31.83l0 470.4c0,17.55 14.28,31.84 31.82,31.84l284.08 0 0 -62.51c0,-27.57 22.42,-49.99 49.99,-49.99l69.33 0 0 -389.74c0,-17.57 -14.28,-31.83 -31.83,-31.83l-371.57 0z"/>
  <path class="fil0" d="M502.08 545.58l0 50.54 87.36 -82.37 -55.54 0c-17.54,0 -31.82,14.28 -31.82,31.83z"/>
 </g>
</svg>
