<?xml version="1.0" encoding="UTF-8"?>
<!DOCTYPE svg PUBLIC "-//W3C//DTD SVG 1.1//EN" "http://www.w3.org/Graphics/SVG/1.1/DTD/svg11.dtd">
<!-- Creator: CorelDRAW 2018 (64-Bit) -->
<svg xmlns="http://www.w3.org/2000/svg" xml:space="preserve" width="709px" height="709px" version="1.1" style="shape-rendering:geometricPrecision; text-rendering:geometricPrecision; image-rendering:optimizeQuality; fill-rule:evenodd; clip-rule:evenodd"
viewBox="0 0 709 709"
 xmlns:xlink="http://www.w3.org/1999/xlink">
 <defs>
  <style type="text/css">
   <![CDATA[
    .fil0 {fill:#970c20;fill-rule:nonzero}
   ]]>
  </style>
 </defs>
 <g id="Слой_x0020_1">
  <metadata id="CorelCorpID_0Corel-Layer"/>
  <path class="fil0" d="M514.21 184.28c-32.73,18.69 -56.07,30.07 -74.66,27.1 20.02,-8.6 55.05,-27.02 73.45,-70.14 1.39,-3.28 -8.56,-7.89 -11.83,-9.28 -3.27,-1.39 -7.05,0.13 -8.44,3.39 -14.21,33.33 -33.49,50.77 -49.69,59.94 18.89,-34.62 30.18,-82.8 30.18,-118.76l-293.96 0c0,46.35 18.71,113.12 48.38,144.83l197.2 0c0.04,-0.05 0.08,-0.1 0.13,-0.15 7.93,2.36 17.81,4.22 29.48,4.22 18.96,0 42.51,-4.87 69.51,-20.27 3.08,-1.77 0.79,-15.39 -0.98,-18.48 -1.76,-3.09 -5.69,-4.17 -8.77,-2.4z"/>
  <path class="fil0" d="M427.13 235.84l-201.79 0c-101.12,40.18 -172.68,138.83 -172.68,254.27 0,151.08 122.49,164.14 273.57,164.14 151.11,0 273.58,-13.06 273.58,-164.14 0,-115.44 -71.54,-214.09 -172.68,-254.27zm-149.14 283.84l-39.13 0 0 -32.61 39.13 0 0 -26.09 -39.13 0 0 -32.61 39.13 0 0 -102.39 87.07 0c10.44,0 19.89,0.98 29.35,3.92 8.47,2.6 16.3,6.84 23.15,12.71 11.41,9.78 21.52,25.77 21.52,50.87 0,25.11 -10.11,41.09 -21.52,50.87 -6.85,5.87 -14.68,10.11 -23.15,12.72 -9.46,2.93 -18.91,3.91 -29.35,3.91l-32.28 0 0 26.09 93.91 0 0 32.61 -93.91 0 0 34.56 -54.79 0 0 -34.56zm54.79 -91.31l18.26 0c6.52,0 14.02,-0.98 18.59,-3.59 4.89,-2.6 12.71,-9.78 12.71,-25.75 0,-15.99 -7.82,-23.16 -12.71,-25.77 -2.94,-1.63 -6.53,-2.28 -9.79,-2.93 -2.93,-0.33 -5.87,-0.66 -8.8,-0.66l-18.26 0 0 58.7z"/>
 </g>
</svg>
