<svg width="30" height="48" viewBox="0 0 30 48" fill="none" xmlns="http://www.w3.org/2000/svg">
    <path d="M29.1178 23.9998C29.1178 24.5649 28.9483 25.1295 28.6375 25.5529L14.5202 46.7294C14.012 47.492 13.1646 48.0002 12.1766 48.0002H3.70606C2.15298 48.0002 0.882179 46.7294 0.882179 45.1763C0.882179 44.6117 1.05176 44.0472 1.36248 43.6237L14.4354 23.9998L1.36248 4.37644C1.05176 3.95301 0.882179 3.38844 0.882179 2.82336C0.882179 1.27079 2.15298 0 3.70606 0H12.1766C13.1646 0 14.012 0.508215 14.5202 1.27079L28.6375 22.4473C28.9483 22.8707 29.1178 23.4353 29.1178 23.9998V23.9998Z" fill="black"/>
</svg>
