<?xml version="1.0" encoding="UTF-8"?>
<!DOCTYPE svg PUBLIC "-//W3C//DTD SVG 1.1//EN" "http://www.w3.org/Graphics/SVG/1.1/DTD/svg11.dtd">
<!-- Creator: CorelDRAW X7 -->
<svg xmlns="http://www.w3.org/2000/svg" xml:space="preserve" width="5.4186mm" height="5.4186mm" version="1.1" style="shape-rendering:geometricPrecision; text-rendering:geometricPrecision; image-rendering:optimizeQuality; fill-rule:evenodd; clip-rule:evenodd"
viewBox="0 0 542 542"
 xmlns:xlink="http://www.w3.org/1999/xlink">
 <defs>
  <style type="text/css">
   <![CDATA[
    .str0 {stroke:#FEFEFE;stroke-width:7.62}
    .fil2 {fill:#E31E24}
    .fil3 {fill:#2B2A29}
    .fil0 {fill:#E31E24}
    .fil1 {fill:white}
   ]]>
  </style>
 </defs>
 <g id="Слой_x0020_1">
  <metadata id="CorelCorpID_0Corel-Layer"/>
  <rect class="fil0" width="542" height="542" rx="46" ry="51"/>
  <path class="fil1" d="M180 411l62 0c6,0 11,5 11,11l0 0c0,6 -5,11 -11,11l-62 0c-6,0 -11,-5 -11,-11l0 0c0,-6 5,-11 11,-11zm68 -308c6,0 11,5 11,11 0,6 -5,11 -11,11 -6,0 -11,-5 -11,-11 0,-6 5,-11 11,-11zm-37 1c6,0 12,5 12,11 0,6 -6,11 -12,11 -6,0 -11,-5 -11,-11 0,-6 5,-11 11,-11zm-38 0c6,0 11,5 11,11 0,6 -5,11 -11,11 -7,0 -12,-5 -12,-11 0,-6 5,-11 12,-11zm-71 29c-2,48 -1,99 -1,147 0,29 -4,121 5,142 4,10 7,16 15,22 4,4 4,5 9,8 4,2 9,4 14,6 11,3 124,4 138,-2 42,-16 42,-63 39,-101l-21 -5 0 36c0,0 2,1 -10,2l-168 -1 0 -242 179 0 0 27c6,-2 11,-7 20,-8 0,-14 1,-28 -3,-41 -16,-46 -57,-41 -93,-41 -20,0 -69,-3 -85,4 -23,9 -37,24 -38,47z"/>
  <g id="_621707882512">
   <path class="fil2 str0" d="M158 312c3,-3 8,-8 12,-11 1,-1 1,-1 2,-2l5 -5c5,-4 15,-14 19,-17 2,2 4,4 7,6 6,4 14,3 20,0 4,-2 4,-4 6,-6 2,1 2,1 3,2 1,1 2,1 2,2l15 13c2,3 8,7 9,9l8 7c0,0 2,1 2,2 -2,1 -4,1 -6,1l-82 0c-4,0 -19,0 -22,-1zm75 -39c1,-1 10,-11 12,-14 1,-1 2,-1 3,-2l24 -27c1,2 1,3 1,5l0 68c0,2 -1,6 -1,5 0,0 0,0 0,0l-12 -11c-1,-1 -2,-1 -3,-2l-24 -22zm-80 -33c0,-3 0,-7 1,-10 4,5 10,11 14,16 1,1 2,2 3,3 1,1 21,23 22,24 -2,1 -19,17 -20,17 -1,1 -1,2 -2,3l-17 15 -1 -1c-1,-3 0,-59 0,-67zm79 26c-1,1 -2,2 -3,3 -5,5 -7,11 -16,11 -7,0 -10,-4 -13,-8l-26 -28c-1,-1 -3,-2 -4,-3l-12 -15c2,-1 10,-1 13,-1l84 0c2,0 11,0 13,1 0,0 0,0 0,0 0,1 -1,2 -2,2 0,1 0,2 -1,2l-5 6c-1,0 -1,1 -2,1l-13 15c-3,3 -10,11 -13,14zm-84 40c0,4 3,7 5,9 3,3 6,3 11,3l86 0c5,0 10,0 14,0 5,0 8,-2 10,-4 3,-2 4,-6 4,-10 0,-8 1,-68 0,-72 0,-4 -3,-7 -5,-9 -3,-3 -6,-3 -11,-3l-86 0c-5,0 -10,0 -14,0 -5,0 -8,2 -11,4 -2,3 -3,6 -4,11 0,4 0,9 0,14 1,6 0,53 1,57z"/>
   <path class="fil2 str0" d="M158 226l12 15c1,1 3,2 4,3l26 28c3,4 6,8 13,8 9,0 11,-6 16,-11 1,-1 2,-2 3,-3 3,-3 10,-11 13,-14l13 -15c1,0 1,-1 2,-1l5 -6c1,0 1,-1 1,-2 1,0 2,-1 2,-2 0,0 0,0 0,0 -2,-1 -11,-1 -13,-1l-84 0c-3,0 -11,0 -13,1z"/>
   <path class="fil2 str0" d="M158 312c3,1 18,1 22,1l82 0c2,0 4,0 6,-1 0,-1 -2,-2 -2,-2l-8 -7c-1,-2 -7,-6 -9,-9l-15 -13c0,-1 -1,-1 -2,-2 -1,-1 -1,-1 -3,-2 -2,2 -2,4 -6,6 -6,3 -14,4 -20,0 -3,-2 -5,-4 -7,-6 -4,3 -14,13 -19,17l-5 5c-1,1 -1,1 -2,2 -4,3 -9,8 -12,11z"/>
   <path class="fil2 str0" d="M153 240c0,8 -1,64 0,67l1 1 17 -15c1,-1 1,-2 2,-3 1,0 18,-16 20,-17 -1,-1 -21,-23 -22,-24 -1,-1 -2,-2 -3,-3 -4,-5 -10,-11 -14,-16 -1,3 -1,7 -1,10z"/>
   <path class="fil2 str0" d="M233 273l24 22c1,1 2,1 3,2l12 11c0,0 0,0 0,0 0,1 1,-3 1,-5l0 -68c0,-2 0,-3 -1,-5l-24 27c-1,1 -2,1 -3,2 -2,3 -11,13 -12,14z"/>
  </g>
  <ellipse class="fil2" cx="347" cy="260" rx="100" ry="101"/>
  <path class="fil3" d="M434 302c7,-27 14,-36 5,-69 -6,-21 -18,-32 -31,-42 -49,-36 -110,-11 -130,29 -25,52 -1,107 51,125 27,9 43,2 67,-5 9,13 26,28 38,40 10,9 30,33 52,12 28,-29 -22,-55 -52,-90zm-87 -101c-17,2 -34,14 -39,22 -37,56 12,106 57,99 79,-12 62,-131 -18,-121z"/>
 </g>
</svg>
