<?xml version="1.0" standalone="no"?>
<!DOCTYPE svg PUBLIC "-//W3C//DTD SVG 20010904//EN"
 "http://www.w3.org/TR/2001/REC-SVG-20010904/DTD/svg10.dtd">
<svg version="1.0" xmlns="http://www.w3.org/2000/svg"
 width="205.000000pt" height="205.000000pt" viewBox="0 0 205.000000 205.000000"
 preserveAspectRatio="xMidYMid meet">
<metadata>
Created by potrace 1.11, written by Peter Selinger 2001-2013
</metadata>
<g transform="translate(0.000000,205.000000) scale(0.100000,-0.100000)"
fill="#000000" stroke="none">
<path d="M875 2034 c-102 -18 -113 -20 -185 -44 -241 -81 -461 -273 -579 -507
-32 -64 -76 -186 -85 -238 -3 -17 -9 -41 -12 -55 -12 -51 -10 -272 3 -343 80
-430 408 -756 836 -832 108 -19 313 -12 412 15 196 52 321 120 458 249 168
158 275 359 310 583 16 100 15 254 -2 346 -76 402 -380 719 -781 813 -103 25
-276 31 -375 13z"/>
</g>
</svg>
